<svg width="19" height="19" viewBox="0 0 19 19" fill="none" xmlns="http://www.w3.org/2000/svg">
<path d="M17.3927 14.5112C17.3927 14.7962 17.3294 15.0891 17.1948 15.3741C17.0602 15.6591 16.8861 15.9283 16.6565 16.1816C16.2686 16.6091 15.8411 16.9178 15.3582 17.1158C14.8832 17.3137 14.3686 17.4166 13.8144 17.4166C13.0069 17.4166 12.144 17.2266 11.2336 16.8387C10.3232 16.4508 9.41274 15.9283 8.51024 15.2712C7.59982 14.6062 6.7369 13.8699 5.91357 13.0545C5.09815 12.2312 4.3619 11.3683 3.70482 10.4658C3.05565 9.56325 2.53315 8.66075 2.15315 7.76617C1.77315 6.86367 1.58315 6.00075 1.58315 5.17742C1.58315 4.63909 1.67815 4.1245 1.86815 3.6495C2.05815 3.16659 2.35899 2.72325 2.77857 2.32742C3.28524 1.82867 3.8394 1.58325 4.42524 1.58325C4.6469 1.58325 4.86857 1.63075 5.06649 1.72575C5.27232 1.82075 5.4544 1.96325 5.5969 2.16909L7.43357 4.75784C7.57607 4.95575 7.67899 5.13784 7.75024 5.312C7.82149 5.47825 7.86107 5.6445 7.86107 5.79492C7.86107 5.98492 7.80565 6.17492 7.69482 6.357C7.5919 6.53909 7.44149 6.72909 7.25149 6.91909L6.64982 7.5445C6.56274 7.63159 6.52315 7.7345 6.52315 7.86117C6.52315 7.9245 6.53107 7.97992 6.5469 8.04325C6.57065 8.10659 6.5944 8.15409 6.61024 8.20159C6.75274 8.46284 6.99815 8.80325 7.34649 9.21492C7.70274 9.62659 8.08274 10.0462 8.4944 10.4658C8.9219 10.8853 9.33357 11.2733 9.75315 11.6295C10.1648 11.9778 10.5052 12.2153 10.7744 12.3578C10.814 12.3737 10.8615 12.3974 10.9169 12.4212C10.9802 12.4449 11.0436 12.4528 11.1148 12.4528C11.2494 12.4528 11.3523 12.4053 11.4394 12.3183L12.0411 11.7245C12.239 11.5266 12.429 11.3762 12.6111 11.2812C12.7932 11.1703 12.9752 11.1149 13.1732 11.1149C13.3236 11.1149 13.4819 11.1466 13.6561 11.2178C13.8302 11.2891 14.0123 11.392 14.2102 11.5266L16.8307 13.387C17.0365 13.5295 17.179 13.6958 17.2661 13.8937C17.3452 14.0916 17.3927 14.2895 17.3927 14.5112Z" stroke="white" stroke-width="1.1875" stroke-miterlimit="10"/>
<path d="M14.646 7.12533C14.646 6.65033 14.2739 5.92199 13.7197 5.32824C13.2131 4.78199 12.5401 4.35449 11.8751 4.35449" stroke="white" stroke-width="1.1875" stroke-linecap="round" stroke-linejoin="round"/>
<path d="M17.4168 7.12516C17.4168 4.06141 14.9389 1.5835 11.8751 1.5835" stroke="white" stroke-width="1.1875" stroke-linecap="round" stroke-linejoin="round"/>
</svg>
