<svg width="36" height="40" viewBox="0 0 36 40" fill="none" xmlns="http://www.w3.org/2000/svg">
<mask id="mask0" style="mask-type:alpha" maskUnits="userSpaceOnUse" x="0" y="0" width="36" height="40">
<rect width="36" height="40" fill="#C4C4C4"/>
</mask>
<g mask="url(#mask0)">
<g opacity="0.2">
<path d="M7.55558 21.1304C8.82562 20.7272 10.0167 19.8948 11.1728 18.7295C13.2658 16.5567 16.0424 15.759 18.3551 16.6257C20.6678 17.4925 22.1924 19.8222 22.342 22.8354C22.4212 24.5435 22.7981 25.8836 23.5166 26.9521C23.8058 27.4601 24.0949 27.9681 24.3578 28.5462C26.0493 32.7767 24.8065 37.5859 21.6446 39.1983C19.4725 40.3024 16.8883 39.7336 14.8995 37.7894C13.2086 36.1167 9.63442 34.7772 7.19054 34.9004C6.1219 34.9794 5.13205 34.8483 4.22099 34.5068C2.81936 33.9815 1.69793 32.9219 1.18083 31.5292C-0.142541 28.2359 2.15153 23.8207 6.13666 21.7176C6.61839 21.4985 7.10012 21.2794 7.55558 21.1304Z" fill="#868A8F"/>
<path d="M27.1942 19.6984C28.3414 18.1302 29.8916 17.1926 31.4595 17.0609C32.5282 16.9819 33.4655 17.2532 34.2014 17.8487C36.0588 19.5039 35.9368 22.815 33.9227 25.417C32.7755 26.9852 31.2253 27.9228 29.6574 28.0545C29.0617 28.151 28.4748 28.0109 27.9843 27.8271C27.6338 27.6958 27.2396 27.4681 26.9417 27.1966C25.0319 25.6816 25.1538 22.3705 27.1942 19.6984Z" fill="#868A8F"/>
<path d="M25.3893 17.9032C24.7236 17.9734 24.1105 17.9035 23.5498 17.6933C23.1293 17.5358 22.7351 17.3081 22.4372 17.0366C20.3959 15.2326 20.5791 11.5448 22.8647 8.64492C24.1345 6.96283 26 5.82371 27.6643 5.64817C28.8292 5.5253 29.8367 5.82291 30.6164 6.51475C32.6577 8.31878 32.4745 12.0066 30.1889 14.9064C28.9191 16.5885 27.0536 17.7276 25.3893 17.9032Z" fill="#868A8F"/>
<path d="M8.30621 8.46385C7.57899 7.63185 6.6942 7.22033 5.7219 7.25557C3.26047 7.21229 1.14998 9.85809 0.931695 13.213C0.791931 15.0788 1.31787 16.8744 2.41304 18.0042C2.82482 18.3983 3.33295 18.7485 3.82352 18.9324C4.24401 19.09 4.62068 19.1512 5.02361 19.1424C7.48504 19.1856 9.59553 16.5398 9.78756 13.255C9.92732 11.3892 9.40138 9.5936 8.30621 8.46385Z" fill="#868A8F"/>
<path d="M15.1225 14.3752C14.6494 14.3578 14.2027 14.2703 13.7822 14.1127C13.2215 13.9026 12.7134 13.5523 12.2578 13.0619C11.0488 11.8095 10.4614 9.75119 10.6362 7.5788C10.9157 3.84719 13.3239 0.833424 16.0481 0.815338C17.1606 0.832626 18.1417 1.20032 18.939 2.05859C20.1481 3.31094 20.7354 5.3693 20.5607 7.54169C20.2549 11.3434 17.8729 14.2871 15.1225 14.3752Z" fill="#868A8F"/>
</g>
</g>
</svg>
