<svg width="169" height="72" viewBox="0 0 169 72" fill="none" xmlns="http://www.w3.org/2000/svg">
<path d="M0.00247548 19.1726C-0.0203745 16.8143 0.34439 14.4684 1.08219 12.2284C1.7437 10.2044 2.80594 8.33426 4.20559 6.72953C5.59401 5.17113 7.30635 3.93511 9.22267 3.10805C11.3708 2.20022 13.6855 1.75311 16.0173 1.7956C18.36 1.75745 20.6869 2.18701 22.8616 3.05914C24.8212 3.86137 26.5796 5.08609 28.0116 6.64597C29.4794 8.28134 30.5892 10.2054 31.2699 12.2948C32.0522 14.6969 32.4339 17.2114 32.3997 19.7375V41.5332C32.4056 42.1451 32.2805 42.7512 32.0329 43.3107C31.7995 43.8392 31.4675 44.3184 31.0547 44.7226C30.6331 45.1293 30.1371 45.4509 29.5938 45.6699C29.0301 45.9023 28.426 46.0208 27.8163 46.0188C27.2119 46.0219 26.6131 45.9032 26.0555 45.6699C25.5183 45.4482 25.0279 45.127 24.6102 44.723C24.1974 44.3188 23.8654 43.8396 23.632 43.3111C23.3843 42.7516 23.2592 42.1455 23.2651 41.5336V19.7375C23.2651 16.9243 22.6615 14.7424 21.4542 13.1919C20.2469 11.6414 18.5017 10.8655 16.2186 10.8642C13.9361 10.8642 12.1807 11.562 10.9525 12.9576C9.72428 14.3532 9.1095 16.6242 9.10814 19.7705V41.5332C9.1145 42.1433 8.99576 42.7483 8.75924 43.3107C8.53381 43.8437 8.20078 44.3243 7.78101 44.7226C7.35526 45.1245 6.85981 45.4453 6.31897 45.6695C5.76141 45.9028 5.16257 46.0215 4.55816 46.0184C3.94804 46.0247 3.34308 45.906 2.78064 45.6695C2.24634 45.4424 1.75688 45.1218 1.33531 44.7226C0.915537 44.3243 0.58251 43.8437 0.357083 43.3107C0.118601 42.7487 -0.00208713 42.1437 0.00247548 41.5332V19.1726ZM39.0093 18.0097C39.0062 17.4268 39.125 16.8496 39.3582 16.3153C39.5832 15.7947 39.9044 15.3212 40.305 14.9197C40.7065 14.5192 41.18 14.1979 41.7006 13.9729C42.2349 13.7397 42.812 13.6209 43.395 13.624C43.9834 13.6219 44.5661 13.7405 45.1069 13.9725C45.6374 14.1967 46.1218 14.5173 46.5355 14.9181C46.9446 15.3153 47.2719 15.7887 47.4991 16.3117C47.7322 16.8451 47.851 17.4214 47.848 18.0036V30.379C47.8384 31.3071 48.0188 32.2274 48.3778 33.0834C48.721 33.8944 49.225 34.6275 49.8594 35.2383C50.502 35.8538 51.2581 36.3383 52.0857 36.6649C52.9577 37.0114 53.8885 37.1861 54.8268 37.1793C55.7298 37.1943 56.6253 37.0136 57.4517 36.6494C58.2042 36.3124 58.8734 35.8139 59.4118 35.1894C59.9577 34.5448 60.375 33.8015 60.6411 32.9998C60.9349 32.1231 61.081 31.2037 61.0732 30.2791V18.0036C61.0707 17.4196 61.1959 16.8422 61.44 16.3117C61.6765 15.7903 62.0083 15.3177 62.4182 14.9181C62.8361 14.5146 63.3265 14.1937 63.8636 13.9725C64.4103 13.7416 64.9979 13.6231 65.5914 13.624C66.1743 13.6209 66.7514 13.7397 67.2857 13.9729C67.8028 14.1954 68.2712 14.5171 68.6646 14.9197C69.0551 15.3227 69.3652 15.7963 69.5784 16.3153C69.801 16.8523 69.9139 17.4284 69.9106 18.0097V30.3032C69.9254 32.3944 69.542 34.4693 68.7808 36.4171C68.06 38.271 66.9885 39.9686 65.6252 41.417C64.2683 42.8499 62.6426 44.0015 60.8408 44.8062C58.9489 45.6481 56.8979 46.073 54.8272 46.0522C52.7143 46.064 50.6218 45.6398 48.6803 44.8062C46.8014 44.0081 45.0927 42.8577 43.6465 41.417C42.2114 39.979 41.0614 38.2824 40.2573 36.4167C39.4216 34.4874 38.9973 32.4052 39.0113 30.3028L39.0093 18.0097ZM90.5109 36.8153C90.723 36.814 90.9344 36.792 91.1422 36.7497C91.3538 36.7097 91.5564 36.6319 91.7402 36.5198C91.9236 36.4038 92.0772 36.2463 92.1885 36.06C92.3187 35.8301 92.3819 35.5683 92.3711 35.3043C92.386 35.0349 92.3225 34.767 92.1885 34.5328C92.0721 34.3513 91.9044 34.2084 91.7068 34.1223C91.4956 34.0323 91.2712 33.9772 91.0424 33.9593C90.7978 33.9373 90.5652 33.9263 90.3446 33.9263H85.0621C83.6851 33.9399 82.3226 33.6442 81.0751 33.0609C79.883 32.5031 78.8156 31.7107 77.9366 30.7311C77.0543 29.7429 76.3566 28.6044 75.8766 27.3697C75.3789 26.1089 75.1253 24.765 75.1291 23.4095C75.1238 22.1044 75.3897 20.8125 75.91 19.6156C76.4112 18.4459 77.1332 17.3838 78.0364 16.4873C78.9466 15.5911 80.0174 14.8741 81.1929 14.374C82.4159 13.8492 83.7342 13.5829 85.065 13.5918H95.3649C95.9419 13.5888 96.5151 13.6854 97.0593 13.8771C97.5763 14.0574 98.0512 14.3411 98.4549 14.711C98.8619 15.0898 99.1845 15.55 99.4017 16.0618C99.6435 16.6425 99.7623 17.2671 99.7506 17.896C99.756 18.5119 99.6432 19.1232 99.4184 19.6967C99.2119 20.228 98.9139 20.7189 98.538 21.1474C98.1732 21.5582 97.7261 21.8878 97.2256 22.1146C96.7257 22.3459 96.1814 22.4654 95.6307 22.4647H85.228C84.9067 22.4691 84.5986 22.5936 84.3643 22.8136C84.2316 22.9318 84.1269 23.0782 84.058 23.242C83.989 23.4058 83.9575 23.5829 83.9657 23.7605C83.9406 23.9534 83.9657 24.1495 84.0384 24.3299C84.1112 24.5103 84.2292 24.6689 84.3811 24.7904C84.6105 24.952 84.8816 25.0443 85.162 25.0562H91.2091C92.6015 25.0415 93.9798 25.3366 95.2443 25.9199C96.4434 26.4737 97.5216 27.2583 98.4174 28.2289C99.3091 29.2016 100.008 30.3346 100.477 31.5679C100.964 32.829 101.212 34.1698 101.208 35.5216C101.217 36.8459 100.975 38.16 100.494 39.3937C100.035 40.5727 99.3589 41.6548 98.5001 42.5836C97.6308 43.5148 96.5865 44.2656 95.4269 44.7931C94.1944 45.3552 92.8604 45.6603 91.5062 45.6899H78.6164C78.0561 45.6977 77.5007 45.5839 76.9885 45.3564C76.5031 45.1354 76.0679 44.8176 75.7095 44.4226C75.334 44.0059 75.0459 43.5182 74.8621 42.9883C74.6571 42.3988 74.5559 41.7782 74.5629 41.1541C74.5317 40.577 74.6155 39.9994 74.8095 39.455C75.0034 38.9105 75.3037 38.41 75.6928 37.9826C76.0718 37.595 76.5277 37.2909 77.0312 37.0898C77.5347 36.8888 78.0747 36.7953 78.6164 36.8153H90.5109ZM113.636 33.9911V41.3685C113.639 41.9499 113.526 42.5261 113.302 43.0629C113.089 43.5816 112.771 44.0509 112.369 44.4418C111.967 44.8299 111.497 45.1398 110.983 45.3556C110.45 45.5792 109.877 45.6922 109.299 45.6878C108.71 45.6901 108.126 45.5773 107.581 45.3556C107.05 45.143 106.564 44.8331 106.147 44.4418C105.732 44.0502 105.398 43.5819 105.163 43.0629C104.918 42.5317 104.793 41.9533 104.796 41.3685V6.44706C104.792 5.86739 104.917 5.29411 105.163 4.769C105.404 4.25321 105.737 3.78589 106.147 3.3901C106.56 2.99013 107.047 2.67424 107.581 2.45997C108.126 2.23839 108.71 2.12555 109.298 2.12778C109.893 2.12234 110.482 2.23527 111.032 2.45997C111.553 2.67203 112.025 2.98859 112.418 3.3901C112.807 3.78862 113.118 4.25627 113.335 4.769C113.56 5.29977 113.673 5.87083 113.669 6.44706L113.635 24.1897L123.336 15.2853C124.112 14.5366 125.149 14.1194 126.227 14.1225C126.815 14.1204 127.398 14.2391 127.939 14.4714C128.472 14.6979 128.957 15.025 129.367 15.4349C129.78 15.8494 130.117 16.3329 130.364 16.8635C130.619 17.4094 130.75 18.0054 130.746 18.6081C130.769 19.1804 130.655 19.7499 130.414 20.2694C130.165 20.8074 129.816 21.2925 129.384 21.698L121.311 29.1069L131.279 38.2109C131.677 38.5559 131.99 38.9883 132.193 39.4744C132.381 39.9388 132.477 40.4354 132.475 40.9365C132.475 41.5353 132.356 42.1282 132.126 42.681C131.903 43.2319 131.582 43.7383 131.179 44.176C130.788 44.6024 130.32 44.9518 129.801 45.206C129.278 45.4611 128.704 45.5919 128.122 45.588C126.905 45.5884 125.736 45.1112 124.866 44.2588L113.636 33.9911ZM145.4 33.8248C146.079 34.9474 147.027 35.8836 148.157 36.5491C149.284 37.2129 150.571 37.5574 151.879 37.5457C152.577 37.5641 153.275 37.4915 153.955 37.3297C154.449 37.1968 154.923 37.0013 155.367 36.748C155.772 36.4786 156.215 36.2719 156.682 36.135C157.087 36.0171 157.506 35.9557 157.928 35.9524C158.519 35.9463 159.103 36.0716 159.64 36.3193C160.155 36.5589 160.618 36.8975 161.002 37.3158C161.394 37.743 161.703 38.2386 161.916 38.7779C162.136 39.3271 162.249 39.9137 162.248 40.5057C162.245 41.2651 162.025 42.0077 161.614 42.6463C161.127 43.3834 160.465 43.9884 159.687 44.4072C158.671 44.9625 157.58 45.3656 156.447 45.6034C154.946 45.9234 153.413 46.0738 151.879 46.0518C149.703 46.0644 147.549 45.629 145.549 44.7728C143.614 43.9514 141.85 42.7737 140.349 41.3009C138.859 39.8299 137.664 38.0875 136.827 36.1676C135.959 34.1831 135.517 32.0379 135.532 29.8715C135.516 27.6888 135.957 25.5271 136.827 23.5253C137.663 21.5952 138.858 19.8418 140.349 18.3586C141.844 16.8786 143.609 15.6999 145.549 14.8867C147.551 14.0406 149.705 13.6107 151.879 13.6232C154.029 13.6103 156.16 14.0342 158.142 14.8692C160.061 15.6726 161.808 16.8346 163.292 18.293C164.774 19.7578 165.969 21.4878 166.814 23.3932C167.693 25.3601 168.162 27.4855 168.193 29.6396C168.217 30.2033 168.122 30.7658 167.913 31.2899C167.704 31.814 167.386 32.2877 166.98 32.6798C166.126 33.4611 164.998 33.8731 163.842 33.826L145.4 33.8248ZM159.122 26.4473C158.518 25.1373 157.549 24.0296 156.331 23.2575C155.05 22.4483 153.56 22.0324 152.045 22.0612C150.531 22.0173 149.042 22.4534 147.792 23.3072C146.647 24.1033 145.731 25.1854 145.134 26.4457L159.122 26.4473ZM154.935 4.75106C154.932 4.12188 155.063 3.49921 155.317 2.92382C155.564 2.36023 155.913 1.84754 156.347 1.41205C156.783 0.977694 157.295 0.628389 157.859 0.382058C158.434 0.127506 159.057 -0.00263838 159.686 0.000143664C160.326 -0.00494491 160.96 0.125198 161.547 0.382058C162.11 0.628389 162.623 0.977694 163.059 1.41205C163.493 1.84754 163.842 2.36023 164.089 2.92382C164.343 3.49921 164.473 4.12188 164.471 4.75106C164.476 5.39126 164.345 6.02531 164.089 6.61173C163.842 7.17532 163.493 7.68801 163.059 8.1235C162.625 8.55629 162.112 8.90047 161.547 9.13678C160.958 9.38353 160.325 9.50832 159.686 9.50361C159.059 9.50613 158.437 9.38133 157.859 9.13678C157.294 8.90048 156.78 8.5563 156.347 8.1235C155.913 7.68801 155.564 7.17532 155.317 6.61173C155.061 6.02578 154.931 5.39231 154.936 4.75269L154.935 4.75106ZM141.313 4.75106C141.31 4.12345 141.435 3.50183 141.679 2.92382C141.916 2.35883 142.26 1.84533 142.693 1.41205C143.132 0.974958 143.651 0.625422 144.221 0.382058C144.814 0.126225 145.453 -0.00382125 146.099 0.000143664C146.728 -0.00263838 147.35 0.127506 147.926 0.382058C148.489 0.628389 149.002 0.977694 149.438 1.41205C149.872 1.84754 150.221 2.36023 150.468 2.92382C150.722 3.49921 150.852 4.12188 150.85 4.75106C150.855 5.39126 150.724 6.02531 150.468 6.61173C150.221 7.17532 149.872 7.68801 149.438 8.1235C149.004 8.55629 148.491 8.90047 147.926 9.13678C147.348 9.38133 146.726 9.50613 146.099 9.50361C145.455 9.50725 144.816 9.38254 144.221 9.13678C143.65 8.90347 143.13 8.55905 142.693 8.1235C142.26 7.69022 141.916 7.17672 141.679 6.61173C141.433 6.02314 141.308 5.39076 141.313 4.75269L141.313 4.75106Z" fill="#CE0917"/>
<path d="M6.92554 58.8557C6.24138 58.5534 5.50059 58.4006 4.75265 58.4074C4.12713 58.4106 3.50924 58.5449 2.93882 58.8017C2.36841 59.0584 1.85815 59.4319 1.44095 59.8979C0.956711 60.4154 0.580319 61.024 0.333714 61.6884C0.0871092 62.3528 -0.0247748 63.0596 0.00458436 63.7676C-0.0234141 64.4266 0.0828658 65.0844 0.316965 65.701C0.551064 66.3176 0.908094 66.8801 1.36636 67.3545C1.78322 67.7925 2.28571 68.1401 2.84258 68.3757C3.39946 68.6113 3.99884 68.7298 4.60347 68.724C5.30653 68.7223 6.00222 68.5807 6.65001 68.3074C7.31982 68.0297 7.65473 67.742 7.65473 67.4441C7.65452 67.344 7.62048 67.2469 7.55813 67.1686C7.53484 67.1319 7.50312 67.1013 7.46562 67.0793C7.42812 67.0573 7.38591 67.0446 7.34251 67.0423C7.29249 67.0413 7.24255 67.0464 7.19374 67.0573C7.16188 67.0639 7.13158 67.0765 7.10447 67.0944L7.01521 67.1613C6.97785 67.1897 6.93802 67.2146 6.89619 67.2359C6.25355 67.6914 5.48286 67.9312 4.69518 67.9206C4.16492 67.9362 3.63805 67.8311 3.15427 67.6135C2.67049 67.3958 2.24243 67.0711 1.90234 66.664C1.18686 65.8364 0.802597 64.7734 0.823442 63.6796C0.788832 62.504 1.204 61.3595 1.98427 60.4796C2.30428 60.0831 2.70738 59.7616 3.16514 59.5379C3.62291 59.3141 4.12419 59.1936 4.63364 59.1847C5.32127 59.1901 5.99852 59.3531 6.61332 59.6611C6.77039 59.7497 6.94171 59.8101 7.11955 59.8397C7.17302 59.8467 7.2274 59.8394 7.27711 59.8185C7.32681 59.7975 7.37006 59.7638 7.40242 59.7206C7.47321 59.6269 7.51001 59.5119 7.50677 59.3946C7.50623 59.2139 7.31248 59.0343 6.92554 58.8557ZM9.45589 58.3051C9.426 64.0899 9.43102 67.3296 9.47097 68.0242C9.48102 68.4706 9.63047 68.6938 9.91932 68.6938C10.0192 68.7004 10.1178 68.6685 10.1949 68.6046C10.2277 68.572 10.2523 68.532 10.2665 68.4879C10.2806 68.4439 10.284 68.3971 10.2764 68.3515C10.2663 68.1928 10.254 67.9695 10.2393 67.6818C10.2246 67.394 10.2122 67.1336 10.2022 66.9004C10.1921 66.6673 10.1871 66.4515 10.1871 66.2532C10.1871 65.3899 10.2045 63.9958 10.2393 62.0708C10.2741 60.1459 10.2915 58.9849 10.2915 58.5879C10.2943 58.4414 10.2893 58.2949 10.2764 58.149C10.2651 58.0716 10.2315 57.9992 10.1798 57.9407C10.1438 57.9053 10.1004 57.8783 10.0528 57.8616C10.0052 57.8449 9.95444 57.8389 9.90424 57.8441C9.84323 57.8402 9.78212 57.8496 9.72509 57.8716C9.66807 57.8937 9.61648 57.9278 9.57389 57.9716C9.53129 58.0154 9.49868 58.068 9.47831 58.1256C9.45794 58.1832 9.45029 58.2446 9.45589 58.3055V58.3051ZM12.7452 62.264V68.1583C12.7356 68.2915 12.7613 68.4249 12.8198 68.5451C12.8549 68.5888 12.9008 68.6228 12.9529 68.6436C13.005 68.6645 13.0617 68.6715 13.1173 68.6641C13.1977 68.6666 13.278 68.6565 13.3553 68.6343C13.413 68.6161 13.4611 68.576 13.4894 68.5226C13.5178 68.4725 13.5356 68.417 13.5416 68.3596C13.5465 68.3053 13.5489 68.2237 13.5489 68.115V66.0893C13.5489 65.7222 13.5514 65.1442 13.5563 64.3554C13.5612 63.5666 13.5636 62.9886 13.5636 62.6215C13.58 62.3956 13.5547 62.1686 13.489 61.9518C13.4393 61.8526 13.3203 61.803 13.132 61.803C12.8842 61.8028 12.7552 61.9564 12.7452 62.264ZM12.8495 60.2994C13.3854 59.7935 13.8964 59.2626 14.3825 58.707C14.4664 58.6271 14.5234 58.5231 14.5455 58.4094C14.5415 58.3002 14.4963 58.1966 14.419 58.1193C14.3418 58.0421 14.2381 57.9969 14.129 57.9928C14.0668 57.9972 14.0064 58.0156 13.9523 58.0465C13.8982 58.0774 13.8517 58.1201 13.8163 58.1714C13.5881 58.4591 13.2979 58.7965 12.9457 59.1834C12.5935 59.5704 12.3978 59.7886 12.3584 59.838C12.2923 59.9072 12.2505 59.9961 12.2393 60.0911C12.2395 60.1355 12.2496 60.1793 12.2689 60.2192C12.2882 60.2591 12.3163 60.2942 12.351 60.3218C12.4178 60.3832 12.5049 60.4176 12.5956 60.4184C12.6909 60.4075 12.7801 60.3657 12.8495 60.2994V60.2994ZM16.094 64.2592V66.4696C16.094 67.0601 16.0915 67.4842 16.0866 67.7421C16.0817 68 16.0796 68.1735 16.0801 68.2626C16.0801 68.5305 16.1991 68.6645 16.4372 68.6645C16.7448 68.6645 16.8986 68.5256 16.8986 68.2479V65.6132C16.8948 65.2417 16.9247 64.8707 16.9878 64.5046C17.0515 64.1686 17.1612 63.8429 17.3139 63.5369C17.4744 63.2127 17.7355 62.949 18.0582 62.7853C18.4468 62.5954 18.8759 62.5034 19.3083 62.5176C20.5088 62.5176 21.1191 63.2965 21.1392 64.8543C21.1492 65.2619 21.1442 65.8522 21.1241 66.6253C21.104 67.3984 21.0938 67.9292 21.0935 68.2178C21.0935 68.4955 21.2225 68.6343 21.4803 68.6343C21.593 68.643 21.7048 68.6084 21.793 68.5377C21.856 68.4846 21.8982 68.4108 21.912 68.3294C21.924 68.2133 21.929 68.0965 21.9271 67.9797V64.5853C21.9706 63.8296 21.7438 63.083 21.2871 62.4792C21.0609 62.22 20.7782 62.0161 20.4608 61.8832C20.1434 61.7502 19.7997 61.6919 19.4562 61.7126C18.9134 61.7064 18.3787 61.8451 17.9074 62.1144C17.4505 62.3716 17.0939 62.7755 16.8953 63.2606V62.4727C16.8983 62.2889 16.8732 62.1056 16.8207 61.9294C16.781 61.8351 16.6768 61.788 16.5081 61.788C16.44 61.7789 16.3707 61.7886 16.3077 61.8161C16.2448 61.8436 16.1906 61.8879 16.151 61.9441C16.0818 62.0955 16.0511 62.2617 16.0618 62.4279L16.094 64.2592ZM24.2952 62.2648V68.1583C24.2856 68.2915 24.3113 68.4249 24.3698 68.5451C24.4049 68.5888 24.4508 68.6228 24.5029 68.6436C24.555 68.6645 24.6117 68.6715 24.6673 68.6641C24.7477 68.6666 24.828 68.6565 24.9053 68.6343C24.963 68.6161 25.0111 68.576 25.0394 68.5226C25.0678 68.4725 25.0856 68.417 25.0916 68.3596C25.0965 68.3053 25.099 68.2237 25.099 68.115V66.0893C25.099 65.7222 25.1014 65.1442 25.1063 64.3554C25.1112 63.5666 25.1136 62.9886 25.1136 62.6215C25.13 62.3956 25.1047 62.1686 25.039 61.9518C24.9893 61.8526 24.8703 61.803 24.682 61.803C24.4339 61.8028 24.305 61.9564 24.2952 62.264V62.2648ZM24.6522 59.4667C25.1384 59.4667 25.3814 59.2435 25.3814 58.797C25.3919 58.6185 25.3335 58.4427 25.2184 58.3059C25.1563 58.2438 25.0817 58.1957 24.9995 58.1649C24.9173 58.1341 24.8295 58.1213 24.7419 58.1274C24.6502 58.121 24.5582 58.1336 24.4716 58.1644C24.385 58.1952 24.3057 58.2436 24.2387 58.3065C24.1717 58.3694 24.1184 58.4455 24.0822 58.53C24.046 58.6145 24.0276 58.7055 24.0282 58.7974C24.0206 58.9748 24.0819 59.1482 24.1994 59.2813C24.2572 59.3428 24.3275 59.3911 24.4057 59.4229C24.4838 59.4548 24.5679 59.4695 24.6522 59.4659V59.4667ZM32.2135 62.2212C31.6778 61.9037 31.0653 61.7389 30.4425 61.7448C29.9832 61.7329 29.5275 61.8283 29.1116 62.0234C28.6956 62.2185 28.3309 62.5078 28.0463 62.8685C27.4457 63.5782 27.1139 64.4765 27.1088 65.4062C27.104 66.2439 27.4118 67.0533 27.9721 67.6761C28.262 68.017 28.6258 68.2874 29.0359 68.4666C29.4459 68.6459 29.8914 68.7293 30.3386 68.7105C31.1073 68.7431 31.8607 68.4884 32.452 67.996C32.4934 67.9582 32.5266 67.9122 32.5497 67.8611C32.5727 67.8099 32.5851 67.7546 32.5861 67.6985C32.5805 67.5954 32.5383 67.4977 32.467 67.423C32.4381 67.3819 32.4004 67.3479 32.3566 67.3234C32.3128 67.299 32.264 67.2846 32.2139 67.2815C32.0121 67.3396 31.821 67.43 31.6482 67.5493C31.2083 67.7958 30.7082 67.9144 30.2045 67.8917C29.8928 67.9014 29.583 67.8393 29.2992 67.7102C29.0153 67.5812 28.7648 67.3886 28.5672 67.1474C28.14 66.623 27.9175 65.9615 27.9411 65.2855C27.9464 64.5956 28.1881 63.9284 28.6259 63.3951C28.8245 63.1199 29.0863 62.8965 29.3894 62.7437C29.6924 62.5909 30.0278 62.5132 30.3671 62.5171C30.7617 62.5145 31.1523 62.5957 31.5133 62.7552C31.5432 62.775 31.6002 62.8098 31.6845 62.8595C31.7526 62.9015 31.8249 62.9365 31.9001 62.9639C31.9576 62.9834 32.0179 62.9934 32.0786 62.9936C32.1294 62.9927 32.1793 62.9802 32.2245 62.9569C32.2696 62.9337 32.3088 62.9003 32.3391 62.8595C32.407 62.7864 32.4466 62.6914 32.4507 62.5917C32.4478 62.5144 32.4243 62.4393 32.3826 62.3742C32.3409 62.309 32.2825 62.2562 32.2135 62.2212V62.2212ZM40.2806 63.7244L40.2957 62.5636C40.2957 62.375 40.2933 62.2411 40.2884 62.1617C40.2803 62.0753 40.2436 61.9941 40.184 61.931C40.1469 61.8921 40.1017 61.8619 40.0515 61.8426C40.0013 61.8232 39.9474 61.8153 39.8938 61.8193C39.6153 61.8183 39.476 62.0013 39.476 62.3684V63.0678C39.2309 62.6591 38.8809 62.3234 38.4622 62.0957C38.0436 61.868 37.5716 61.7565 37.0953 61.7729C36.6458 61.7657 36.2002 61.8572 35.7901 62.0411C35.3799 62.225 35.0151 62.4967 34.7214 62.8371C34.079 63.5529 33.7354 64.4879 33.7616 65.4494C33.7464 66.2925 34.0584 67.1087 34.6322 67.7266C34.9143 68.0386 35.261 68.2854 35.6481 68.4499C36.0352 68.6144 36.4535 68.6926 36.874 68.6792C37.3974 68.7165 37.9206 68.6033 38.3818 68.3527C38.8429 68.1021 39.2226 67.7248 39.476 67.2652V67.4735C39.476 67.7216 39.4785 67.8928 39.4834 67.9871C39.4908 68.0996 39.5057 68.2116 39.5282 68.3221C39.5361 68.4196 39.5814 68.5103 39.6546 68.5752C39.7263 68.6181 39.8091 68.6388 39.8926 68.6347C39.997 68.6331 40.0983 68.5994 40.1828 68.5381C40.2254 68.5129 40.2607 68.4772 40.2855 68.4343C40.3103 68.3915 40.3236 68.343 40.3242 68.2936C40.2745 67.4303 40.2497 66.6613 40.2497 65.9866L40.2806 63.7244ZM34.5947 65.4196C34.5702 64.6668 34.8217 63.931 35.3019 63.3507C35.5107 63.0878 35.7768 62.876 36.0799 62.7315C36.383 62.5871 36.7151 62.5138 37.0509 62.5171C37.3739 62.515 37.6941 62.5785 37.9919 62.7039C38.2896 62.8292 38.5588 63.0138 38.7831 63.2463C39.0355 63.5109 39.2311 63.8243 39.3579 64.1673C39.4846 64.5103 39.5398 64.8756 39.5201 65.2407C39.5347 65.595 39.4784 65.9487 39.3544 66.281C39.2304 66.6132 39.0413 66.9174 38.7982 67.1755C38.5606 67.4208 38.2743 67.6137 37.9577 67.7419C37.6412 67.8701 37.3013 67.9307 36.96 67.9198C36.6471 67.9245 36.3367 67.864 36.0484 67.7422C35.7602 67.6205 35.5004 67.4401 35.2856 67.2126C35.0559 66.9755 34.8764 66.6945 34.7577 66.3864C34.639 66.0784 34.5835 65.7496 34.5947 65.4196ZM46.6358 62.7103L46.6208 66.9522C46.6208 67.1109 46.6183 67.3292 46.6134 67.6072C46.6085 67.8852 46.6061 68.0985 46.6061 68.2471C46.6061 68.515 46.7449 68.649 47.0226 68.649C47.0832 68.656 47.1445 68.6482 47.2013 68.6262C47.2582 68.6042 47.3088 68.5686 47.3487 68.5226C47.4216 68.3778 47.4526 68.2154 47.438 68.0539L47.4229 65.0785V62.6659C47.433 60.7309 47.438 59.4658 47.438 58.8704C47.438 58.5927 47.3091 58.4538 47.0512 58.4538C46.9902 58.4448 46.928 58.4501 46.8694 58.4694C46.8109 58.4887 46.7577 58.5215 46.7141 58.5651C46.6705 58.6087 46.6377 58.6619 46.6184 58.7204C46.5991 58.779 46.5937 58.8412 46.6028 58.9022C46.6028 59.4976 46.6079 60.202 46.6179 61.0156C46.628 61.8291 46.6339 62.3941 46.6358 62.7103ZM50.2227 64.2592V66.4696C50.2227 67.0601 50.2202 67.4842 50.2153 67.7421C50.2104 68 50.208 68.1736 50.208 68.263C50.208 68.5309 50.327 68.6649 50.5651 68.6649C50.8727 68.6649 51.0264 68.526 51.0264 68.2483V65.6132C51.0227 65.2417 51.0526 64.8707 51.1157 64.5046C51.1794 64.1686 51.2891 63.8429 51.4418 63.5369C51.6023 63.2127 51.8634 62.949 52.1861 62.7853C52.5746 62.5954 53.0038 62.5034 53.4361 62.5176C54.6366 62.5176 55.247 63.2965 55.2671 64.8543C55.2771 65.2619 55.2721 65.8522 55.252 66.6253C55.2319 67.3984 55.222 67.9292 55.2222 68.2178C55.2222 68.4955 55.3512 68.6343 55.609 68.6343C55.7217 68.643 55.8335 68.6084 55.9217 68.5377C55.9847 68.4846 56.0269 68.4108 56.0407 68.3294C56.0527 68.2133 56.0577 68.0965 56.0558 67.9797V64.5853C56.0993 63.8296 55.8724 63.083 55.4158 62.4792C55.1896 62.22 54.9069 62.0161 54.5895 61.8832C54.2721 61.7502 53.9284 61.6919 53.5849 61.7126C53.0421 61.7064 52.5074 61.8451 52.0361 62.1144C51.5792 62.3716 51.2226 62.7755 51.024 63.2606V62.4727C51.027 62.2889 51.0019 62.1056 50.9494 61.9294C50.9097 61.8351 50.8055 61.788 50.6368 61.788C50.5687 61.7789 50.4994 61.7886 50.4364 61.8161C50.3735 61.8436 50.3193 61.8879 50.2797 61.9441C50.2105 62.0955 50.1798 62.2617 50.1905 62.4279L50.2227 64.2592ZM57.7224 62.6219H58.8686C58.8686 62.989 58.8611 63.5694 58.8461 64.3631C58.8312 65.1569 58.8237 65.7373 58.8237 66.1044C58.8237 67.0283 58.9751 67.6882 59.2778 68.0841C59.4669 68.2969 59.7037 68.4619 59.969 68.5654C60.2342 68.6689 60.5201 68.708 60.8034 68.6796C61.0781 68.6784 61.3503 68.628 61.6072 68.5308C61.6824 68.5068 61.7478 68.459 61.7934 68.3946C61.8391 68.3302 61.8625 68.2527 61.8603 68.1737C61.8605 68.0748 61.8292 67.9783 61.771 67.8982C61.7454 67.8587 61.71 67.8263 61.6684 67.8042C61.6267 67.7821 61.5802 67.771 61.533 67.7719C61.4179 67.7821 61.3049 67.8096 61.198 67.8534C61.0524 67.9064 60.8988 67.9339 60.7439 67.9349C60.5697 67.9513 60.3946 67.9155 60.2409 67.832C60.0871 67.7486 59.9617 67.6212 59.8806 67.4662C59.6895 66.966 59.6084 66.4305 59.6426 65.8961V62.6068H61.2946C61.6022 62.6068 61.756 62.4828 61.756 62.2347C61.756 61.9866 61.6171 61.8625 61.3394 61.8625L59.6275 61.8776C59.6275 61.7388 59.6325 61.4858 59.6426 61.1187C59.6526 60.7516 59.6577 60.5085 59.6577 60.3895C59.6577 60.2604 59.6552 60.1736 59.6503 60.129C59.6429 60.0737 59.6305 60.0191 59.6132 59.966C59.6069 59.9383 59.5941 59.9124 59.576 59.8905C59.5579 59.8686 59.5349 59.8512 59.5089 59.8397C59.4419 59.8171 59.3713 59.807 59.3006 59.8099C59.0129 59.8099 58.869 60.043 58.869 60.5093L58.8539 61.8789H57.7823C57.4747 61.8789 57.3209 62.0128 57.3209 62.2807C57.322 62.5079 57.4565 62.6215 57.7244 62.6215L57.7224 62.6219ZM63.7801 65.4498C64.1877 65.4498 64.917 65.4522 65.968 65.4571C67.0191 65.462 67.664 65.4545 67.9029 65.4347C68.1162 65.4324 68.3285 65.405 68.5355 65.3532C68.6704 65.3214 68.7893 65.2421 68.8705 65.1298C68.9346 65.0386 68.9778 64.9344 68.9969 64.8245C69.0146 64.6758 69.0221 64.526 69.0193 64.3762C69.0128 64.0324 68.9354 63.6938 68.792 63.3813C68.6485 63.0689 68.4422 62.7894 68.1858 62.5604C67.9257 62.2964 67.615 62.0879 67.2723 61.9472C66.9295 61.8066 66.5619 61.7367 66.1914 61.7419C65.7453 61.7421 65.3052 61.8449 64.9051 62.0423C64.5051 62.2398 64.1559 62.5267 63.8844 62.8807C63.2576 63.6171 62.9191 64.5558 62.9319 65.5227C62.9508 66.3609 63.2951 67.1589 63.8918 67.7478C64.1713 68.045 64.5094 68.2812 64.8847 68.4412C65.26 68.6013 65.6644 68.6819 66.0724 68.6779C66.9218 68.7134 67.7607 68.479 68.4686 68.0083C68.6969 67.8496 68.811 67.6907 68.811 67.5318C68.8052 67.4295 68.7599 67.3335 68.6847 67.264C68.6508 67.2235 68.6087 67.1906 68.5612 67.1675C68.5137 67.1444 68.4619 67.1316 68.4091 67.1299C68.3581 67.1302 68.3076 67.1403 68.2604 67.1596C68.2078 67.181 68.1579 67.2084 68.1116 67.2412C68.0782 67.2656 68.0433 67.2879 68.0072 67.308C67.4708 67.6693 66.8382 67.8611 66.1914 67.8587C65.865 67.8719 65.5397 67.8142 65.2378 67.6895C64.9358 67.5649 64.6645 67.3764 64.4424 67.1368C64.012 66.6811 63.7753 66.0762 63.7821 65.4494L63.7801 65.4498ZM66.2807 62.5029C66.5328 62.5015 66.7827 62.5509 67.0154 62.6481C67.2481 62.7453 67.4588 62.8883 67.6351 63.0686C67.8268 63.2558 67.9774 63.4808 68.0774 63.7293C68.1773 63.9779 68.2243 64.2446 68.2155 64.5123C68.2155 64.6115 68.156 64.671 68.037 64.6908C67.8783 64.7107 66.4743 64.7404 63.8249 64.7801C63.885 64.1739 64.1596 63.6092 64.5993 63.1876C64.8182 62.9644 65.0805 62.7884 65.37 62.6706C65.6596 62.5527 65.9702 62.4955 66.2827 62.5025L66.2807 62.5029ZM73.5917 71.2393C73.087 71.2395 72.5869 71.1435 72.1182 70.9564C72.0487 70.9265 71.9672 70.8868 71.8737 70.8374C71.7802 70.7879 71.7033 70.7507 71.643 70.7257C71.5865 70.7016 71.5258 70.689 71.4645 70.6886C71.4141 70.6892 71.3643 70.7 71.3183 70.7205C71.2722 70.7409 71.2309 70.7706 71.1967 70.8076C71.1586 70.8441 71.1283 70.8881 71.1079 70.9367C71.0874 70.9854 71.0771 71.0377 71.0776 71.0905C71.0776 71.2791 71.2315 71.4428 71.539 71.5816C72.1656 71.8639 72.8462 72.0061 73.5334 71.9982C73.9871 72.0129 74.439 71.9347 74.8613 71.7683C75.2837 71.6019 75.6675 71.3508 75.9892 71.0306C76.3171 70.688 76.5699 70.2806 76.7314 69.8346C76.8928 69.3887 76.9593 68.9139 76.9266 68.4407L76.9116 67.116C76.9116 66.1832 76.9215 64.546 76.9413 62.2045C76.944 62.1521 76.9354 62.0998 76.9162 62.051C76.8969 62.0022 76.8674 61.9581 76.8296 61.9217C76.755 61.852 76.6561 61.8146 76.5541 61.8173C76.2962 61.8173 76.1673 61.9562 76.1673 62.2339V63.0364C75.9179 62.6382 75.571 62.3103 75.1595 62.0837C74.7479 61.857 74.2853 61.7393 73.8155 61.7415C73.3659 61.7343 72.9201 61.8236 72.508 62.0033C72.0959 62.1831 71.7272 62.449 71.4266 62.7833C70.7701 63.4945 70.4199 64.4355 70.4516 65.4029C70.4419 66.2514 70.7621 67.0705 71.3446 67.6875C71.6215 68.001 71.9633 68.2506 72.3462 68.419C72.7291 68.5873 73.1441 68.6704 73.5623 68.6624C74.0888 68.6835 74.6109 68.5584 75.0706 68.3009C75.5303 68.0434 75.9098 67.6636 76.1669 67.2037V68.3963C76.205 69.1511 75.9518 69.8917 75.4597 70.4652C75.223 70.7219 74.9334 70.9241 74.6108 71.0577C74.2883 71.1914 73.9405 71.2533 73.5917 71.2393V71.2393ZM71.2847 65.3752C71.2579 64.6185 71.5124 63.8788 71.9992 63.2989C72.2126 63.0371 72.4832 62.8278 72.7903 62.6872C73.0974 62.5466 73.4326 62.4783 73.7702 62.4878C74.0944 62.4826 74.4162 62.544 74.7157 62.6681C75.0152 62.7923 75.2861 62.9766 75.5115 63.2096C75.9998 63.7694 76.2461 64.5 76.1962 65.2411C76.2129 65.5958 76.156 65.9502 76.0292 66.2819C75.9024 66.6136 75.7084 66.9155 75.4593 67.1686C75.2219 67.4044 74.9394 67.5899 74.6286 67.7139C74.3179 67.838 73.9853 67.898 73.6508 67.8905C73.3366 67.8966 73.0247 67.8368 72.735 67.715C72.4454 67.5932 72.1845 67.4121 71.9691 67.1833C71.74 66.9427 71.5614 66.6588 71.4437 66.3483C71.3259 66.0377 71.2715 65.7067 71.2835 65.3748L71.2847 65.3752ZM79.3795 62.264C79.3795 62.4624 79.387 62.7675 79.402 63.1795C79.4169 63.5914 79.4244 63.8867 79.4244 64.0652C79.4244 64.7399 79.3995 66.0298 79.3498 67.9349C79.3278 68.1211 79.3508 68.31 79.4166 68.4856C79.4531 68.5391 79.5038 68.5814 79.5629 68.6077C79.6221 68.634 79.6875 68.6432 79.7517 68.6343C79.8083 68.6427 79.8661 68.6377 79.9205 68.6197C79.9748 68.6018 80.0243 68.5713 80.0647 68.5308C80.1052 68.4903 80.1357 68.4409 80.1536 68.3866C80.1716 68.3322 80.1766 68.2744 80.1682 68.2178C80.1783 67.4841 80.1833 66.5265 80.1833 65.345C80.1668 64.6305 80.4011 63.9328 80.8457 63.3731C81.022 63.1231 81.2546 62.918 81.5248 62.7745C81.795 62.631 82.0952 62.553 82.401 62.5469H82.7137C82.9914 62.5469 83.1302 62.418 83.1302 62.1601C83.1302 61.8824 82.9416 61.7435 82.5645 61.7435C82.0888 61.7529 81.627 61.9059 81.2398 62.1825C80.7687 62.5177 80.4023 62.9796 80.1829 63.5145L80.1678 62.251C80.1678 61.9521 80.0438 61.8026 79.7957 61.8026C79.509 61.8026 79.3703 61.9564 79.3795 62.264ZM90.3638 63.7228L90.3789 62.562C90.3789 62.3734 90.3764 62.2394 90.3715 62.1601C90.3635 62.0737 90.3267 61.9925 90.2672 61.9294C90.2301 61.8905 90.1848 61.8602 90.1347 61.8409C90.0845 61.8216 90.0306 61.8137 89.977 61.8177C89.6993 61.8177 89.5604 62.0013 89.5604 62.3684V63.0678C89.3153 62.659 88.9651 62.3232 88.5463 62.0955C88.1274 61.8678 87.6553 61.7564 87.1789 61.7729C86.7294 61.7657 86.2838 61.8572 85.8736 62.0411C85.4635 62.225 85.0987 62.4967 84.805 62.8371C84.1625 63.5529 83.819 64.4879 83.8451 65.4494C83.83 66.2925 84.142 67.1087 84.7158 67.7266C84.9979 68.0386 85.3446 68.2854 85.7317 68.4499C86.1188 68.6144 86.5371 68.6926 86.9575 68.6792C87.4814 68.717 88.0051 68.6039 88.4667 68.3533C88.9283 68.1027 89.3084 67.7251 89.5621 67.2652V67.4735C89.5621 67.7216 89.5645 67.8928 89.5694 67.9871C89.5768 68.0996 89.5918 68.2116 89.6142 68.3221C89.6221 68.4196 89.6674 68.5103 89.7406 68.5752C89.8123 68.6181 89.8951 68.6388 89.9786 68.6347C90.083 68.6331 90.1843 68.5994 90.2688 68.5381C90.3114 68.5129 90.3468 68.4772 90.3715 68.4343C90.3963 68.3915 90.4096 68.343 90.4103 68.2936C90.3605 67.4303 90.3357 66.6613 90.3357 65.9866L90.3638 63.7228ZM84.6783 65.4196C84.6538 64.6668 84.9053 63.931 85.3854 63.3507C85.5943 63.0878 85.8604 62.876 86.1635 62.7315C86.4666 62.5871 86.7987 62.5138 87.1344 62.5171C87.4578 62.5148 87.7782 62.5782 88.0763 62.7035C88.3744 62.8289 88.6439 63.0136 88.8683 63.2463C89.1207 63.5109 89.3163 63.8243 89.4431 64.1673C89.5698 64.5103 89.625 64.8756 89.6053 65.2407C89.6199 65.595 89.5636 65.9487 89.4396 66.281C89.3157 66.6132 89.1266 66.9174 88.8834 67.1755C88.6458 67.4208 88.3595 67.6137 88.0429 67.7419C87.7264 67.8701 87.3865 67.9307 87.0452 67.9198C86.7323 67.9245 86.4219 67.864 86.1336 67.7422C85.8454 67.6205 85.5856 67.4401 85.3708 67.2126C85.1408 66.9756 84.961 66.6947 84.842 66.3866C84.723 66.0786 84.6673 65.7497 84.6783 65.4196V65.4196ZM92.7613 58.3051C92.7314 64.0899 92.7364 67.3296 92.7764 68.0242C92.7864 68.4706 92.9359 68.6938 93.2247 68.6938C93.3246 68.7004 93.4232 68.6685 93.5002 68.6046C93.5331 68.572 93.5577 68.532 93.5718 68.4879C93.586 68.4439 93.5894 68.3971 93.5818 68.3515C93.572 68.1928 93.5596 67.9695 93.5447 67.6818C93.5297 67.394 93.5174 67.1336 93.5076 66.9004C93.4975 66.6673 93.4925 66.4515 93.4925 66.2532C93.4925 65.3899 93.5099 63.9958 93.5447 62.0708C93.5794 60.1459 93.5968 58.9849 93.5968 58.5879C93.5997 58.4414 93.5946 58.2949 93.5818 58.149C93.5696 58.0716 93.535 57.9995 93.4823 57.9415C93.4463 57.9061 93.4029 57.8791 93.3553 57.8624C93.3077 57.8457 93.257 57.8397 93.2068 57.8449C93.1458 57.841 93.0846 57.8505 93.0276 57.8725C92.9706 57.8945 92.919 57.9286 92.8764 57.9724C92.8338 58.0163 92.8012 58.0688 92.7808 58.1264C92.7605 58.1841 92.7528 58.2454 92.7584 58.3063L92.7613 58.3051ZM98.8344 59.2874L100.36 63.0454C100.841 64.2312 101.186 65.0722 101.395 65.5684C101.603 66.0646 101.789 66.5235 101.953 66.9453C102.116 67.367 102.251 67.7266 102.36 68.0242C102.412 68.1907 102.492 68.3469 102.598 68.4856C102.644 68.5325 102.7 68.5688 102.762 68.592C102.824 68.6151 102.89 68.6246 102.955 68.6196C103.193 68.6196 103.392 68.4608 103.551 68.1432L104.95 64.6603C105.099 64.303 105.225 63.9879 105.329 63.7151C105.434 63.4422 105.523 63.2065 105.597 63.0079L105.753 62.5913C106.646 60.4381 107.098 59.3417 107.108 59.302C107.176 59.1445 107.226 58.9797 107.257 58.8109C107.256 58.7603 107.242 58.7107 107.218 58.6666C107.193 58.6224 107.158 58.585 107.115 58.5578C107.023 58.4889 106.91 58.4522 106.795 58.4534C106.617 58.4534 106.478 58.5824 106.379 58.8402L103.521 66.2226C103.481 66.3218 103.402 66.5326 103.283 66.8552C103.164 67.1777 103.07 67.4234 103 67.5921L100.158 60.3871C100.099 60.2085 99.997 59.9307 99.853 59.5535C99.709 59.1764 99.6123 58.9182 99.5628 58.7791C99.5465 58.6881 99.4989 58.6057 99.4283 58.5462C99.3577 58.4866 99.2684 58.4537 99.176 58.453C99.059 58.4558 98.9464 58.4977 98.856 58.572C98.8091 58.6031 98.7704 58.645 98.7432 58.6943C98.716 58.7436 98.7012 58.7987 98.6999 58.8549C98.7176 59.0058 98.7629 59.1521 98.8336 59.2866L98.8344 59.2874ZM108.553 65.4494C108.96 65.4494 109.69 65.4518 110.741 65.4567C111.792 65.4616 112.437 65.4541 112.676 65.4343C112.889 65.432 113.101 65.4046 113.308 65.3528C113.443 65.321 113.562 65.2417 113.643 65.1294C113.707 65.0382 113.75 64.934 113.77 64.8241C113.787 64.6754 113.795 64.5256 113.792 64.3758C113.785 64.032 113.708 63.6934 113.565 63.3809C113.421 63.0684 113.215 62.789 112.958 62.5599C112.698 62.296 112.388 62.0875 112.045 61.9468C111.702 61.8062 111.334 61.7363 110.964 61.7415C110.518 61.7417 110.078 61.8444 109.678 62.0419C109.278 62.2394 108.928 62.5263 108.657 62.8803C108.03 63.6167 107.692 64.5554 107.705 65.5223C107.723 66.3605 108.068 67.1585 108.664 67.7474C108.944 68.0446 109.282 68.2807 109.657 68.4408C110.033 68.6009 110.437 68.6815 110.845 68.6775C111.694 68.713 112.533 68.4786 113.241 68.0079C113.47 67.8492 113.584 67.6903 113.584 67.5314C113.578 67.4291 113.533 67.3331 113.457 67.2636C113.423 67.2231 113.381 67.1902 113.334 67.1671C113.286 67.144 113.235 67.1312 113.182 67.1295C113.131 67.1298 113.08 67.1399 113.033 67.1592C112.98 67.1806 112.931 67.208 112.884 67.2408C112.851 67.2651 112.816 67.2875 112.78 67.3076C112.243 67.6689 111.611 67.8607 110.964 67.8583C110.638 67.8714 110.312 67.8137 110.01 67.6891C109.708 67.5645 109.437 67.376 109.215 67.1364C108.784 66.6811 108.547 66.0763 108.553 65.4494ZM111.053 62.5025C111.305 62.5011 111.555 62.5505 111.788 62.6477C112.021 62.7449 112.231 62.8879 112.408 63.0682C112.599 63.2553 112.75 63.4804 112.85 63.7289C112.95 63.9775 112.997 64.2442 112.988 64.5119C112.988 64.6111 112.929 64.6706 112.81 64.6904C112.651 64.7103 111.247 64.74 108.598 64.7797C108.658 64.1735 108.932 63.6088 109.372 63.1872C109.591 62.9643 109.853 62.7886 110.142 62.6708C110.431 62.553 110.741 62.4958 111.053 62.5025V62.5025ZM115.176 62.6215H116.322C116.322 62.9886 116.315 63.569 116.3 64.3627C116.285 65.1565 116.277 65.7369 116.277 66.104C116.277 67.0279 116.429 67.6878 116.732 68.0837C116.921 68.2965 117.157 68.4615 117.423 68.565C117.688 68.6685 117.974 68.7076 118.257 68.6792C118.532 68.6779 118.804 68.6276 119.061 68.5304C119.136 68.5064 119.201 68.4586 119.247 68.3942C119.293 68.3298 119.316 68.2522 119.314 68.1733C119.314 68.0744 119.283 67.9779 119.225 67.8978C119.199 67.8583 119.164 67.8259 119.122 67.8038C119.08 67.7817 119.034 67.7706 118.987 67.7714C118.872 67.7817 118.759 67.8092 118.652 67.853C118.506 67.906 118.353 67.9335 118.198 67.9345C118.023 67.9509 117.848 67.9151 117.695 67.8316C117.541 67.7482 117.415 67.6208 117.334 67.4658C117.143 66.9655 117.062 66.4301 117.096 65.8957V62.6064H118.748C119.056 62.6064 119.21 62.4824 119.21 62.2343C119.21 61.9862 119.071 61.8621 118.793 61.8621L117.081 61.8772C117.081 61.7384 117.086 61.4854 117.096 61.1183C117.106 60.7512 117.111 60.5081 117.111 60.3891C117.111 60.26 117.109 60.1732 117.104 60.1286C117.096 60.0733 117.084 60.0187 117.067 59.9656C117.06 59.9379 117.047 59.912 117.029 59.8901C117.011 59.8682 116.988 59.8508 116.962 59.8393C116.895 59.8167 116.825 59.8066 116.754 59.8095C116.466 59.8095 116.322 60.0426 116.322 60.5089L116.307 61.8784H115.236C114.928 61.8784 114.774 62.0124 114.774 62.2803C114.774 62.5078 114.908 62.6215 115.176 62.6215ZM121.234 65.4494C121.641 65.4494 122.371 65.4518 123.422 65.4567C124.473 65.4616 125.118 65.4541 125.357 65.4343C125.57 65.432 125.782 65.4046 125.989 65.3528C126.124 65.321 126.243 65.2417 126.324 65.1294C126.388 65.0382 126.431 64.934 126.451 64.8241C126.468 64.6754 126.476 64.5256 126.473 64.3758C126.467 64.032 126.389 63.6934 126.246 63.3809C126.102 63.0684 125.896 62.789 125.639 62.5599C125.379 62.296 125.069 62.0875 124.726 61.9468C124.383 61.8062 124.016 61.7363 123.645 61.7415C123.199 61.7417 122.759 61.8444 122.359 62.0419C121.959 62.2394 121.61 62.5263 121.338 62.8803C120.711 63.6167 120.373 64.5554 120.386 65.5223C120.405 66.3605 120.749 67.1585 121.345 67.7474C121.625 68.0446 121.963 68.2807 122.338 68.4408C122.714 68.6009 123.118 68.6815 123.526 68.6775C124.376 68.713 125.214 68.4786 125.922 68.0079C126.151 67.8492 126.265 67.6903 126.265 67.5314C126.259 67.4291 126.214 67.3331 126.138 67.2636C126.104 67.2231 126.062 67.1902 126.015 67.1671C125.967 67.144 125.916 67.1312 125.863 67.1295C125.812 67.1298 125.761 67.1399 125.714 67.1592C125.662 67.1806 125.612 67.208 125.565 67.2408C125.532 67.2651 125.497 67.2875 125.461 67.3076C124.924 67.6689 124.292 67.8607 123.645 67.8583C123.319 67.8714 122.993 67.8137 122.691 67.6891C122.39 67.5645 122.118 67.376 121.896 67.1364C121.465 66.6811 121.228 66.0763 121.234 65.4494H121.234ZM123.734 62.5025C123.987 62.5011 124.236 62.5505 124.469 62.6477C124.702 62.7449 124.913 62.8879 125.089 63.0682C125.281 63.2553 125.431 63.4804 125.531 63.7289C125.631 63.9775 125.678 64.2442 125.669 64.5119C125.669 64.6111 125.61 64.6706 125.491 64.6904C125.332 64.7103 123.928 64.74 121.279 64.7797C121.339 64.1735 121.613 63.6088 122.053 63.1872C122.272 62.9643 122.534 62.7886 122.823 62.6708C123.112 62.553 123.422 62.4958 123.734 62.5025V62.5025ZM128.497 62.2644C128.497 62.4628 128.505 62.768 128.52 63.1799C128.534 63.5918 128.542 63.8871 128.542 64.0656C128.542 64.7403 128.517 66.0302 128.467 67.9353C128.445 68.1216 128.468 68.3104 128.534 68.486C128.571 68.5395 128.621 68.5818 128.681 68.6081C128.74 68.6344 128.805 68.6436 128.869 68.6347C128.926 68.6431 128.984 68.6381 129.038 68.6201C129.092 68.6022 129.142 68.5717 129.182 68.5312C129.223 68.4907 129.253 68.4413 129.271 68.387C129.289 68.3326 129.294 68.2748 129.286 68.2182C129.296 67.4845 129.3 66.5269 129.3 65.3454C129.284 64.6309 129.518 63.933 129.962 63.3731C130.138 63.1231 130.371 62.918 130.641 62.7745C130.911 62.631 131.212 62.553 131.517 62.5469H131.83C132.108 62.5469 132.247 62.418 132.247 62.1601C132.247 61.8824 132.058 61.7435 131.681 61.7435C131.205 61.7529 130.743 61.9059 130.356 62.1825C129.885 62.5177 129.519 62.9796 129.299 63.5145L129.285 62.251C129.285 61.9521 129.161 61.8026 128.912 61.8026C128.626 61.8026 128.487 61.9564 128.497 62.264V62.2644ZM133.662 62.2644V68.1583C133.652 68.2915 133.678 68.4249 133.736 68.5451C133.772 68.5888 133.817 68.6228 133.869 68.6436C133.922 68.6645 133.978 68.6715 134.034 68.6641C134.114 68.6666 134.195 68.6565 134.272 68.6343C134.33 68.6161 134.378 68.576 134.406 68.5226C134.434 68.4725 134.452 68.417 134.458 68.3596C134.463 68.3053 134.466 68.2237 134.466 68.115V66.0893C134.466 65.7222 134.468 65.1442 134.473 64.3554C134.478 63.5666 134.48 62.9886 134.48 62.6215C134.497 62.3956 134.471 62.1686 134.406 61.9518C134.356 61.8526 134.237 61.803 134.049 61.803C133.801 61.8028 133.672 61.9564 133.662 62.264L133.662 62.2644ZM134.019 59.4663C134.505 59.4663 134.748 59.2431 134.748 58.7966C134.758 58.6181 134.7 58.4423 134.585 58.3055C134.523 58.2434 134.448 58.1954 134.366 58.1646C134.284 58.1338 134.196 58.121 134.109 58.1269C134.017 58.1204 133.925 58.1329 133.838 58.1636C133.751 58.1944 133.672 58.2428 133.605 58.3058C133.538 58.3688 133.484 58.445 133.448 58.5296C133.412 58.6142 133.393 58.7054 133.394 58.7974C133.386 58.9748 133.448 59.1482 133.565 59.2813C133.623 59.3429 133.694 59.3913 133.772 59.4232C133.85 59.4551 133.935 59.4696 134.019 59.4659L134.019 59.4663ZM137.011 64.2588V66.4692C137.011 67.0597 137.008 67.4838 137.003 67.7417C136.998 67.9996 136.996 68.1732 136.996 68.2626C136.996 68.5305 137.115 68.6645 137.353 68.6645C137.661 68.6645 137.814 68.5256 137.814 68.2479V65.6132C137.811 65.2417 137.84 64.8707 137.904 64.5046C137.967 64.1686 138.077 63.8429 138.23 63.5369C138.39 63.2127 138.651 62.949 138.974 62.7853C139.363 62.5954 139.792 62.5034 140.224 62.5176C141.425 62.5176 142.035 63.2965 142.055 64.8543C142.065 65.2619 142.06 65.8522 142.04 66.6253C142.021 67.3984 142.011 67.9292 142.011 68.2178C142.011 68.4955 142.139 68.6343 142.397 68.6343C142.51 68.643 142.622 68.6084 142.71 68.5377C142.773 68.4846 142.815 68.4108 142.829 68.3294C142.841 68.2133 142.846 68.0965 142.844 67.9797V64.5853C142.887 63.8296 142.66 63.083 142.204 62.4792C141.977 62.22 141.695 62.0161 141.377 61.8832C141.06 61.7503 140.716 61.6919 140.373 61.7126C139.83 61.7064 139.295 61.8451 138.824 62.1144C138.367 62.3716 138.01 62.7755 137.812 63.2606V62.4727C137.815 62.2889 137.79 62.1056 137.737 61.9294C137.698 61.8351 137.593 61.788 137.425 61.788C137.357 61.7789 137.287 61.7886 137.224 61.8161C137.161 61.8436 137.107 61.8879 137.068 61.9441C136.998 62.0955 136.968 62.2617 136.978 62.4279L137.011 64.2588ZM151.18 63.7228L151.195 62.562C151.195 62.3734 151.193 62.2394 151.188 62.1601C151.18 62.0737 151.143 61.9925 151.084 61.9294C151.046 61.8905 151.001 61.8602 150.951 61.8409C150.901 61.8216 150.847 61.8137 150.793 61.8177C150.516 61.8177 150.377 62.0013 150.377 62.3684V63.0678C150.132 62.659 149.781 62.3232 149.363 62.0955C148.944 61.8678 148.472 61.7564 147.995 61.7729C147.546 61.7657 147.1 61.8572 146.69 62.0411C146.28 62.225 145.915 62.4967 145.621 62.8371C144.979 63.5529 144.635 64.4879 144.662 65.4494C144.646 66.2925 144.958 67.1087 145.532 67.7266C145.814 68.0386 146.161 68.2854 146.548 68.4499C146.935 68.6144 147.353 68.6926 147.774 68.6792C148.298 68.717 148.822 68.604 149.283 68.3534C149.745 68.1028 150.125 67.7252 150.378 67.2652V67.4735C150.378 67.7216 150.381 67.8928 150.386 67.9871C150.393 68.0996 150.408 68.2116 150.431 68.3221C150.438 68.4196 150.484 68.5103 150.557 68.5752C150.629 68.6181 150.712 68.6388 150.795 68.6347C150.899 68.6331 151.001 68.5994 151.085 68.5381C151.128 68.5129 151.163 68.4772 151.188 68.4343C151.213 68.3915 151.226 68.343 151.227 68.2936C151.177 67.4303 151.152 66.6613 151.152 65.9866L151.18 63.7228ZM145.495 65.4196C145.47 64.6669 145.721 63.9311 146.201 63.3507C146.41 63.0878 146.676 62.876 146.979 62.7315C147.283 62.5871 147.615 62.5138 147.95 62.5171C148.274 62.5148 148.594 62.5782 148.892 62.7035C149.19 62.8289 149.46 63.0136 149.684 63.2463C149.937 63.5109 150.132 63.8243 150.259 64.1673C150.386 64.5103 150.441 64.8756 150.421 65.2407C150.436 65.595 150.38 65.9487 150.256 66.281C150.132 66.6132 149.943 66.9174 149.699 67.1755C149.462 67.4209 149.175 67.6138 148.859 67.742C148.542 67.8701 148.202 67.9307 147.861 67.9198C147.548 67.9245 147.238 67.864 146.95 67.7422C146.661 67.6205 146.402 67.4401 146.187 67.2126C145.957 66.9756 145.777 66.6946 145.658 66.3866C145.539 66.0785 145.484 65.7497 145.495 65.4196V65.4196ZM153.606 62.2644C153.606 62.4628 153.613 62.768 153.628 63.1799C153.643 63.5918 153.651 63.8871 153.651 64.0656C153.651 64.7403 153.626 66.0302 153.576 67.9353C153.554 68.1216 153.577 68.3104 153.643 68.486C153.679 68.5395 153.73 68.5818 153.789 68.6081C153.848 68.6344 153.914 68.6436 153.978 68.6347C154.035 68.6431 154.092 68.6381 154.147 68.6201C154.201 68.6022 154.25 68.5717 154.291 68.5312C154.331 68.4907 154.362 68.4413 154.38 68.387C154.398 68.3326 154.403 68.2748 154.394 68.2182C154.404 67.4845 154.409 66.5269 154.41 65.3454C154.393 64.6309 154.627 63.9332 155.072 63.3735C155.248 63.1235 155.481 62.9184 155.751 62.7749C156.021 62.6314 156.321 62.5534 156.627 62.5473H156.94C157.218 62.5473 157.356 62.4184 157.356 62.1605C157.356 61.8828 157.168 61.7439 156.791 61.7439C156.315 61.7533 155.853 61.9063 155.466 62.1829C154.995 62.5182 154.629 62.98 154.409 63.5149L154.394 62.2514C154.394 61.9525 154.27 61.803 154.022 61.803C153.735 61.8028 153.597 61.9564 153.607 62.264L153.606 62.2644ZM158.77 62.2644V68.1583C158.761 68.2915 158.787 68.4249 158.845 68.5451C158.88 68.5888 158.926 68.6228 158.978 68.6436C159.03 68.6645 159.087 68.6715 159.143 68.6641C159.223 68.6666 159.303 68.6565 159.381 68.6343C159.438 68.6161 159.486 68.576 159.515 68.5226C159.543 68.4725 159.561 68.417 159.567 68.3596C159.572 68.3053 159.574 68.2237 159.574 68.115V66.0893C159.574 65.7222 159.577 65.1442 159.582 64.3554C159.586 63.5666 159.589 62.9886 159.589 62.6215C159.605 62.3956 159.58 62.1686 159.514 61.9518C159.465 61.8526 159.346 61.803 159.157 61.803C158.91 61.8028 158.781 61.9564 158.771 62.264L158.77 62.2644ZM159.127 59.4663C159.614 59.4663 159.857 59.2431 159.857 58.7966C159.867 58.6181 159.809 58.4423 159.694 58.3055C159.632 58.2434 159.557 58.1953 159.475 58.1645C159.393 58.1337 159.305 58.1209 159.217 58.1269C159.125 58.1205 159.033 58.1332 158.947 58.164C158.86 58.1949 158.781 58.2433 158.714 58.3063C158.647 58.3692 158.593 58.4454 158.557 58.5299C158.521 58.6144 158.503 58.7055 158.503 58.7974C158.496 58.9748 158.557 59.1482 158.675 59.2813C158.732 59.3429 158.803 59.3913 158.881 59.4231C158.96 59.455 159.044 59.4696 159.128 59.4659L159.127 59.4663ZM168.147 63.7232L168.162 62.5624C168.162 62.3738 168.16 62.2398 168.155 62.1605C168.147 62.0741 168.11 61.9929 168.05 61.9298C168.013 61.8909 167.968 61.8607 167.918 61.8414C167.868 61.8221 167.814 61.8141 167.76 61.8181C167.483 61.8181 167.344 62.0017 167.344 62.3688V63.0682C167.099 62.6594 166.748 62.3236 166.33 62.0959C165.911 61.8682 165.439 61.7568 164.962 61.7733C164.513 61.7661 164.067 61.8576 163.657 62.0415C163.247 62.2254 162.882 62.4972 162.588 62.8375C161.946 63.5533 161.602 64.4883 161.628 65.4498C161.613 66.2929 161.925 67.1091 162.499 67.727C162.781 68.039 163.128 68.2858 163.515 68.4503C163.902 68.6148 164.32 68.693 164.741 68.6796C165.265 68.7174 165.788 68.6043 166.25 68.3537C166.712 68.1031 167.092 67.7255 167.345 67.2656V67.4739C167.345 67.722 167.348 67.8932 167.353 67.9875C167.36 68.1 167.375 68.212 167.398 68.3225C167.405 68.42 167.451 68.5108 167.524 68.5756C167.596 68.6185 167.678 68.6393 167.762 68.6351C167.866 68.6335 167.968 68.5998 168.052 68.5385C168.095 68.5133 168.13 68.4776 168.155 68.4348C168.18 68.3919 168.193 68.3435 168.194 68.294C168.144 67.4307 168.119 66.6617 168.119 65.987L168.147 63.7232ZM162.462 65.42C162.437 64.6672 162.689 63.9314 163.169 63.3511C163.378 63.0882 163.644 62.8764 163.947 62.7319C164.25 62.5875 164.582 62.5142 164.918 62.5176C165.241 62.5152 165.562 62.5786 165.86 62.7039C166.158 62.8293 166.427 63.014 166.652 63.2467C166.904 63.5113 167.1 63.8247 167.226 64.1677C167.353 64.5107 167.408 64.876 167.389 65.2411C167.403 65.5954 167.347 65.9491 167.223 66.2814C167.099 66.6136 166.91 66.9178 166.667 67.176C166.429 67.4213 166.143 67.6142 165.826 67.7424C165.51 67.8705 165.17 67.9311 164.828 67.9202C164.516 67.9249 164.205 67.8644 163.917 67.7426C163.629 67.6209 163.369 67.4406 163.154 67.213C162.924 66.9759 162.745 66.6949 162.626 66.3867C162.507 66.0786 162.451 65.7497 162.462 65.4196L162.462 65.42Z" fill="white"/>
</svg>
