<svg width="127" height="54" viewBox="0 0 127 54" fill="none" xmlns="http://www.w3.org/2000/svg">
<path d="M0.00222282 14.3795C-0.0149147 12.6108 0.258659 10.8513 0.812013 9.17134C1.30814 7.65333 2.10482 6.25074 3.15457 5.04719C4.19589 3.87839 5.48014 2.95137 6.91739 2.33108C8.52851 1.6502 10.2646 1.31487 12.0134 1.34673C13.7704 1.31812 15.5156 1.64029 17.1466 2.29439C18.6163 2.89607 19.9352 3.81461 21.0091 4.98452C22.11 6.21105 22.9423 7.65411 23.4528 9.22117C24.0396 11.0228 24.3258 12.9086 24.3002 14.8032V31.15C24.3046 31.6089 24.2108 32.0635 24.0251 32.4832C23.85 32.8795 23.601 33.2389 23.2914 33.5421C22.9752 33.8471 22.6032 34.0883 22.1958 34.2525C21.773 34.4268 21.3199 34.5157 20.8627 34.5142C20.4093 34.5165 19.9602 34.4275 19.542 34.2525C19.1392 34.0863 18.7714 33.8453 18.458 33.5424C18.1484 33.2392 17.8994 32.8799 17.7244 32.4835C17.5386 32.0638 17.4448 31.6092 17.4492 31.1503V14.8032C17.4492 12.6933 16.9965 11.0569 16.091 9.89401C15.1856 8.73114 13.8767 8.1492 12.1644 8.14818C10.4525 8.14818 9.13593 8.67153 8.21476 9.71823C7.2936 10.7649 6.83251 12.4682 6.83149 14.828V31.15C6.83626 31.6076 6.7472 32.0613 6.56981 32.4832C6.40074 32.8829 6.15097 33.2434 5.83614 33.5421C5.51682 33.8435 5.14524 34.0841 4.7396 34.2522C4.32144 34.4272 3.8723 34.5162 3.41899 34.5139C2.9614 34.5187 2.50769 34.4296 2.08585 34.2522C1.68512 34.0819 1.31803 33.8414 1.00185 33.5421C0.68702 33.2434 0.43725 32.8829 0.268179 32.4832C0.0893174 32.0616 -0.00119914 31.6079 0.00222282 31.15V14.3795ZM29.2574 13.5073C29.2551 13.0701 29.3442 12.6373 29.5191 12.2366C29.6878 11.8461 29.9288 11.491 30.2292 11.1899C30.5303 10.8894 30.8855 10.6485 31.2759 10.4797C31.6766 10.3049 32.1095 10.2157 32.5467 10.218C32.988 10.2165 33.425 10.3055 33.8306 10.4794C34.2285 10.6476 34.5918 10.888 34.9021 11.1886C35.2089 11.4865 35.4544 11.8416 35.6247 12.2338C35.7996 12.6339 35.8887 13.0661 35.8864 13.5028V22.7843C35.8793 23.4804 36.0145 24.1707 36.2838 24.8126C36.5412 25.4209 36.9192 25.9707 37.395 26.4288C37.8769 26.8904 38.444 27.2538 39.0648 27.4988C39.7188 27.7587 40.4168 27.8897 41.1206 27.8846C41.7978 27.8958 42.4694 27.7603 43.0893 27.4872C43.6536 27.2344 44.1555 26.8605 44.5593 26.3922C44.9688 25.9087 45.2817 25.3512 45.4813 24.75C45.7017 24.0924 45.8112 23.4029 45.8054 22.7094V13.5028C45.8035 13.0648 45.8974 12.6317 46.0805 12.2338C46.2579 11.8428 46.5067 11.4883 46.8142 11.1886C47.1275 10.886 47.4953 10.6454 47.8982 10.4794C48.3082 10.3063 48.7489 10.2174 49.194 10.218C49.6312 10.2157 50.0641 10.3049 50.4648 10.4797C50.8526 10.6466 51.2039 10.8879 51.499 11.1899C51.7918 11.4921 52.0244 11.8473 52.1843 12.2366C52.3512 12.6393 52.436 13.0714 52.4335 13.5073V22.7275C52.4446 24.2959 52.157 25.8521 51.5861 27.3129C51.0455 28.7034 50.2419 29.9766 49.2194 31.0629C48.2017 32.1375 46.9825 33.0012 45.6311 33.6048C44.2121 34.2362 42.6739 34.5549 41.1209 34.5393C39.5362 34.5481 37.9668 34.23 36.5107 33.6048C35.1015 33.0062 33.82 32.1434 32.7353 31.0629C31.659 29.9844 30.7965 28.7119 30.1934 27.3126C29.5667 25.8657 29.2484 24.304 29.2589 22.7272L29.2574 13.5073ZM67.8837 27.6116C68.0428 27.6106 68.2014 27.5941 68.3572 27.5624C68.5159 27.5324 68.6678 27.474 68.8057 27.3899C68.9433 27.303 69.0585 27.1849 69.1419 27.0451C69.2395 26.8727 69.287 26.6764 69.2789 26.4784C69.29 26.2763 69.2424 26.0753 69.1419 25.8997C69.0546 25.7636 68.9289 25.6564 68.7806 25.5918C68.6223 25.5243 68.454 25.483 68.2823 25.4696C68.0989 25.4531 67.9245 25.4448 67.759 25.4448H63.7971C62.7643 25.455 61.7424 25.2333 60.8068 24.7958C59.9128 24.3774 59.1122 23.7831 58.453 23.0484C57.7913 22.3073 57.268 21.4534 56.908 20.5274C56.5347 19.5817 56.3445 18.5738 56.3473 17.5572C56.3433 16.5784 56.5428 15.6094 56.933 14.7118C57.3089 13.8345 57.8504 13.0379 58.5278 12.3656C59.2105 11.6934 60.0136 11.1556 60.8952 10.7805C61.8124 10.387 62.8012 10.1872 63.7993 10.1939H71.5242C71.957 10.1917 72.3869 10.2641 72.795 10.4079C73.1828 10.5431 73.5389 10.7559 73.8417 11.0333C74.147 11.3174 74.389 11.6626 74.5519 12.0464C74.7332 12.482 74.8223 12.9504 74.8135 13.4221C74.8175 13.884 74.733 14.3425 74.5644 14.7726C74.4095 15.171 74.186 15.5393 73.9041 15.8606C73.6305 16.1688 73.2951 16.4159 72.9197 16.586C72.5449 16.7595 72.1366 16.8491 71.7235 16.8486H63.9216C63.6805 16.8519 63.4495 16.9453 63.2738 17.1103C63.1742 17.1989 63.0957 17.3087 63.044 17.4315C62.9923 17.5544 62.9686 17.6873 62.9748 17.8204C62.956 17.9651 62.9748 18.1122 63.0294 18.2475C63.0839 18.3828 63.1724 18.5018 63.2863 18.5929C63.4584 18.7141 63.6617 18.7833 63.872 18.7922H68.4074C69.4517 18.7812 70.4854 19.0025 71.4337 19.44C72.3331 19.8554 73.1418 20.4438 73.8136 21.1718C74.4824 21.9013 75.0066 22.7511 75.3586 23.676C75.7238 24.6219 75.9097 25.6274 75.9067 26.6413C75.9137 27.6345 75.7318 28.6201 75.3708 29.5454C75.0269 30.4296 74.5197 31.2412 73.8757 31.9378C73.2236 32.6362 72.4404 33.1993 71.5707 33.595C70.6464 34.0165 69.6459 34.2453 68.6302 34.2675H58.9629C58.5426 34.2734 58.126 34.1881 57.7419 34.0175C57.3778 33.8517 57.0514 33.6133 56.7826 33.3171C56.501 33.0046 56.2849 32.6388 56.1471 32.2414C55.9934 31.7992 55.9174 31.3338 55.9227 30.8657C55.8993 30.4329 55.9621 29.9997 56.1076 29.5913C56.2531 29.183 56.4783 28.8076 56.7701 28.4871C57.0543 28.1963 57.3963 27.9683 57.7739 27.8175C58.1515 27.6667 58.5565 27.5966 58.9629 27.6116H67.8837ZM85.2274 25.4934V31.0265C85.2299 31.4626 85.1448 31.8947 84.9773 32.2973C84.8171 32.6863 84.5788 33.0383 84.277 33.3315C83.9761 33.6225 83.6237 33.855 83.2376 34.0168C82.8379 34.1845 82.4082 34.2693 81.9748 34.266C81.5331 34.2677 81.0954 34.1831 80.6863 34.0168C80.2881 33.8574 79.9233 33.6249 79.6105 33.3315C79.2999 33.0378 79.0492 32.6866 78.8726 32.2973C78.6892 31.8989 78.5953 31.4651 78.5974 31.0265V4.83534C78.5944 4.40058 78.6884 3.97062 78.8726 3.57679C79.0534 3.18995 79.3035 2.83946 79.6105 2.54262C79.9206 2.24264 80.2859 2.00572 80.6863 1.84502C81.0952 1.67883 81.5327 1.59419 81.9742 1.59587C82.42 1.59179 82.8622 1.67648 83.2749 1.84502C83.6654 2.00406 84.0192 2.24148 84.3143 2.54262C84.6059 2.8415 84.8392 3.19224 85.0021 3.57679C85.1704 3.97487 85.2555 4.40316 85.2522 4.83534L85.2271 18.1423L92.5027 11.4641C93.0844 10.9025 93.8621 10.5896 94.6707 10.5919C95.112 10.5903 95.549 10.6794 95.9546 10.8536C96.3548 11.0235 96.7186 11.2688 97.0261 11.5763C97.3358 11.8871 97.5887 12.2497 97.7735 12.6477C97.965 13.0571 98.0629 13.5041 98.0599 13.9561C98.0771 14.3853 97.9917 14.8125 97.8108 15.2021C97.6246 15.6056 97.3623 15.9695 97.0383 16.2736L90.984 21.8302L98.4598 28.6583C98.7584 28.917 98.9929 29.2414 99.1451 29.6059C99.2863 29.9542 99.3582 30.3267 99.357 30.7025C99.3569 31.1516 99.268 31.5963 99.0953 32.0109C98.9275 32.424 98.687 32.8038 98.3852 33.1322C98.0917 33.4519 97.7409 33.714 97.351 33.9046C96.9592 34.096 96.5285 34.194 96.0925 34.1911C95.1793 34.1914 94.3024 33.8335 93.6503 33.1942L85.2274 25.4934ZM109.05 25.3687C109.56 26.2106 110.271 26.9128 111.119 27.412C111.964 27.9098 112.929 28.1681 113.91 28.1594C114.434 28.1732 114.957 28.1187 115.467 27.9974C115.837 27.8977 116.193 27.7511 116.526 27.5611C116.83 27.3591 117.162 27.204 117.512 27.1014C117.816 27.013 118.13 26.9669 118.447 26.9644C118.89 26.9598 119.328 27.0538 119.73 27.2395C120.117 27.4193 120.464 27.6732 120.752 27.987C121.046 28.3074 121.278 28.6791 121.437 29.0835C121.603 29.4955 121.688 29.9354 121.687 30.3794C121.684 30.9489 121.519 31.5059 121.211 31.9849C120.846 32.5377 120.349 32.9914 119.766 33.3055C119.004 33.722 118.185 34.0243 117.336 34.2027C116.21 34.4427 115.061 34.5555 113.91 34.539C112.278 34.5484 110.662 34.2219 109.163 33.5797C107.711 32.9637 106.388 32.0804 105.263 30.9758C104.145 29.8725 103.248 28.5657 102.621 27.1258C101.97 25.6374 101.638 24.0285 101.649 22.4037C101.638 20.7667 101.969 19.1454 102.621 17.644C103.248 16.1965 104.144 14.8814 105.263 13.769C106.384 12.659 107.708 11.775 109.163 11.1651C110.664 10.5305 112.279 10.2081 113.91 10.2174C115.523 10.2078 117.121 10.5257 118.607 11.152C120.046 11.7545 121.357 12.626 122.47 13.7198C123.582 14.8184 124.478 16.1159 125.111 17.545C125.77 19.0202 126.122 20.6142 126.145 22.2298C126.164 22.6526 126.092 23.0744 125.935 23.4675C125.778 23.8606 125.54 24.2159 125.236 24.51C124.595 25.0959 123.749 25.4049 122.882 25.3696L109.05 25.3687ZM119.342 19.8356C118.889 18.8531 118.162 18.0223 117.249 17.4432C116.288 16.8363 115.17 16.5244 114.034 16.546C112.899 16.513 111.782 16.8401 110.844 17.4805C109.986 18.0776 109.299 18.8891 108.851 19.8343L119.342 19.8356ZM116.202 3.56334C116.2 3.09145 116.298 2.62445 116.489 2.1929C116.673 1.77021 116.935 1.38569 117.261 1.05907C117.588 0.733303 117.972 0.471324 118.395 0.286575C118.826 0.0956603 119.293 -0.00194828 119.765 0.000138266C120.245 -0.00367817 120.721 0.0939289 121.161 0.286575C121.584 0.471324 121.968 0.733303 122.295 1.05907C122.62 1.38569 122.882 1.77021 123.067 2.1929C123.258 2.62445 123.356 3.09145 123.354 3.56334C123.357 4.04348 123.26 4.51902 123.067 4.95884C122.882 5.38154 122.62 5.76606 122.295 6.09267C121.97 6.41727 121.585 6.6754 121.161 6.85263C120.719 7.0377 120.244 7.13129 119.765 7.12776C119.295 7.12965 118.828 7.03605 118.395 6.85263C117.971 6.67541 117.586 6.41727 117.261 6.09267C116.935 5.76606 116.673 5.38154 116.489 4.95884C116.296 4.51938 116.199 4.04427 116.202 3.56456L116.202 3.56334ZM105.985 3.56334C105.983 3.09262 106.077 2.62641 106.26 2.1929C106.437 1.76916 106.696 1.38403 107.02 1.05907C107.35 0.731251 107.739 0.469099 108.167 0.286575C108.611 0.0946997 109.09 -0.00283543 109.575 0.000138266C110.046 -0.00194828 110.513 0.0956603 110.945 0.286575C111.368 0.471324 111.752 0.733303 112.079 1.05907C112.405 1.38569 112.667 1.77021 112.851 2.1929C113.042 2.62445 113.14 3.09145 113.138 3.56334C113.142 4.04348 113.044 4.51902 112.851 4.95884C112.667 5.38154 112.405 5.76606 112.079 6.09267C111.754 6.41727 111.369 6.6754 110.945 6.85263C110.512 7.03605 110.045 7.12965 109.575 7.12776C109.092 7.13049 108.613 7.03696 108.167 6.85263C107.738 6.67765 107.348 6.41934 107.02 6.09267C106.696 5.76771 106.437 5.38258 106.26 4.95884C106.075 4.5174 105.982 4.04311 105.985 3.56456L105.985 3.56334Z" fill="#CE0917"/>
<path d="M5.19417 44.1418C4.68105 43.9151 4.12546 43.8004 3.5645 43.8055C3.09536 43.808 2.63194 43.9087 2.20412 44.1013C1.77631 44.2938 1.39361 44.5739 1.08071 44.9235C0.717535 45.3115 0.43524 45.768 0.250286 46.2663C0.0653321 46.7646 -0.0185812 47.2947 0.00343828 47.8257C-0.0175606 48.32 0.0621495 48.8133 0.237724 49.2757C0.413299 49.7382 0.681073 50.1601 1.02477 50.5159C1.33742 50.8444 1.71428 51.1051 2.13194 51.2818C2.5496 51.4585 2.99914 51.5474 3.45261 51.543C3.97991 51.5417 4.50168 51.4355 4.98752 51.2306C5.48988 51.0223 5.74106 50.8065 5.74106 50.5831C5.7409 50.508 5.71537 50.4352 5.66861 50.3765C5.65114 50.349 5.62736 50.326 5.59923 50.3095C5.5711 50.293 5.53945 50.2835 5.5069 50.2817C5.46938 50.281 5.43192 50.2848 5.39532 50.293C5.37143 50.2979 5.3487 50.3074 5.32837 50.3208L5.26142 50.371C5.2334 50.3923 5.20353 50.411 5.17216 50.4269C4.69018 50.7686 4.11215 50.9484 3.5214 50.9405C3.1237 50.9521 2.72854 50.8734 2.36571 50.7101C2.00288 50.5469 1.68183 50.3034 1.42676 49.998C0.890147 49.3773 0.60195 48.5801 0.617583 47.7597C0.591625 46.878 0.903004 46.0197 1.48821 45.3597C1.72821 45.0623 2.03054 44.8212 2.37386 44.6534C2.71719 44.4856 3.09315 44.3952 3.47524 44.3885C3.99097 44.3926 4.4989 44.5148 4.96 44.7459C5.07781 44.8122 5.20629 44.8576 5.33968 44.8797C5.37978 44.885 5.42056 44.8795 5.45784 44.8638C5.49512 44.8482 5.52756 44.8228 5.55183 44.7905C5.60492 44.7202 5.63252 44.634 5.63009 44.5459C5.62968 44.4104 5.48438 44.2757 5.19417 44.1418ZM7.09193 43.7288C7.06951 48.0675 7.07329 50.4972 7.10324 51.0181C7.11078 51.353 7.22287 51.5204 7.43951 51.5204C7.51442 51.5253 7.58838 51.5014 7.64616 51.4534C7.67081 51.429 7.68922 51.399 7.69986 51.366C7.7105 51.3329 7.71305 51.2978 7.7073 51.2636C7.69976 51.1446 7.69049 50.9772 7.67948 50.7614C7.66848 50.5455 7.6592 50.3502 7.65166 50.1753C7.64412 50.0005 7.64035 49.8387 7.64035 49.6899C7.64035 49.0424 7.6534 47.9968 7.67948 46.5531C7.70557 45.1094 7.71861 44.2387 7.71861 43.941C7.72074 43.8311 7.71696 43.7212 7.7073 43.6117C7.69885 43.5537 7.67368 43.4994 7.63485 43.4555C7.60785 43.429 7.57533 43.4087 7.53961 43.3962C7.50389 43.3837 7.46585 43.3792 7.4282 43.3831C7.38244 43.3802 7.33661 43.3872 7.29384 43.4037C7.25107 43.4202 7.21238 43.4458 7.18043 43.4787C7.14848 43.5116 7.12403 43.551 7.10875 43.5942C7.09348 43.6374 7.08774 43.6835 7.09193 43.7291V43.7288ZM9.5589 46.698V51.1187C9.55171 51.2186 9.571 51.3187 9.61485 51.4088C9.64121 51.4416 9.67561 51.4671 9.7147 51.4828C9.7538 51.4984 9.79627 51.5037 9.83801 51.4981C9.89831 51.5 9.95854 51.4924 10.0165 51.4758C10.0597 51.4621 10.0959 51.432 10.1171 51.392C10.1384 51.3544 10.1517 51.3127 10.1562 51.2697C10.1599 51.229 10.1617 51.1678 10.1617 51.0863V49.567C10.1617 49.2917 10.1636 48.8582 10.1672 48.2666C10.1709 47.6749 10.1727 47.2415 10.1727 46.9661C10.185 46.7967 10.1661 46.6264 10.1168 46.4639C10.0795 46.3895 9.99024 46.3523 9.84901 46.3523C9.66315 46.3521 9.56645 46.4673 9.5589 46.698ZM9.63716 45.2246C10.0391 44.8451 10.4223 44.447 10.7869 44.0302C10.8498 43.9703 10.8926 43.8923 10.9092 43.8071C10.9061 43.7252 10.8722 43.6474 10.8143 43.5895C10.7564 43.5316 10.6786 43.4977 10.5967 43.4946C10.5501 43.4979 10.5048 43.5117 10.4642 43.5349C10.4237 43.558 10.3888 43.5901 10.3623 43.6285C10.1911 43.8444 9.97343 44.0974 9.70931 44.3876C9.44519 44.6778 9.29835 44.8414 9.2688 44.8785C9.21922 44.9304 9.18788 44.9971 9.17954 45.0684C9.17963 45.1016 9.18721 45.1345 9.20171 45.1644C9.21621 45.1944 9.23726 45.2207 9.2633 45.2414C9.31338 45.2874 9.37872 45.3132 9.44671 45.3138C9.51822 45.3056 9.5851 45.2743 9.63716 45.2246V45.2246ZM12.0705 48.1944V49.8522C12.0705 50.2951 12.0687 50.6132 12.065 50.8066C12.0613 51 12.0597 51.1301 12.0601 51.197C12.0601 51.3979 12.1494 51.4984 12.3279 51.4984C12.5586 51.4984 12.674 51.3942 12.674 51.186V49.2099C12.6711 48.9313 12.6935 48.653 12.7409 48.3784C12.7886 48.1264 12.8709 47.8822 12.9855 47.6527C13.1058 47.4095 13.3016 47.2118 13.5437 47.089C13.8351 46.9465 14.157 46.8776 14.4812 46.8882C15.3816 46.8882 15.8393 47.4724 15.8544 48.6407C15.862 48.9464 15.8582 49.3892 15.8431 49.969C15.828 50.5488 15.8204 50.9469 15.8202 51.1633C15.8202 51.3716 15.9169 51.4758 16.1103 51.4758C16.1948 51.4823 16.2786 51.4564 16.3448 51.4033C16.3921 51.3634 16.4237 51.3081 16.434 51.2471C16.443 51.16 16.4468 51.0724 16.4453 50.9848V48.439C16.478 47.8722 16.3079 47.3123 15.9654 46.8594C15.7957 46.665 15.5837 46.5121 15.3456 46.4124C15.1076 46.3127 14.8498 46.2689 14.5922 46.2844C14.1851 46.2798 13.7841 46.3838 13.4306 46.5858C13.0879 46.7787 12.8205 47.0816 12.6715 47.4455V46.8545C12.6738 46.7167 12.6549 46.5792 12.6156 46.4471C12.5858 46.3763 12.5077 46.341 12.3811 46.341C12.33 46.3341 12.2781 46.3415 12.2308 46.3621C12.1836 46.3827 12.143 46.4159 12.1133 46.4581C12.0614 46.5716 12.0384 46.6963 12.0464 46.8209L12.0705 48.1944ZM18.2214 46.6986V51.1187C18.2142 51.2187 18.2335 51.3187 18.2774 51.4088C18.3037 51.4416 18.3381 51.4671 18.3772 51.4828C18.4163 51.4984 18.4588 51.5037 18.5005 51.4981C18.5608 51.5 18.6211 51.4924 18.6791 51.4758C18.7223 51.4621 18.7584 51.432 18.7796 51.392C18.8009 51.3544 18.8142 51.3127 18.8188 51.2697C18.8224 51.229 18.8243 51.1678 18.8243 51.0863V49.567C18.8243 49.2917 18.8261 48.8582 18.8298 48.2666C18.8334 47.6749 18.8353 47.2415 18.8353 46.9661C18.8476 46.7967 18.8286 46.6264 18.7793 46.4639C18.742 46.3895 18.6528 46.3523 18.5115 46.3523C18.3255 46.3521 18.2288 46.4673 18.2214 46.698V46.6986ZM18.4892 44.6C18.8538 44.6 19.0361 44.4326 19.0361 44.0978C19.0439 43.9639 19.0002 43.832 18.9138 43.7294C18.8673 43.6828 18.8113 43.6468 18.7497 43.6237C18.688 43.6006 18.6222 43.591 18.5565 43.5955C18.4877 43.5907 18.4187 43.6002 18.3537 43.6233C18.2888 43.6464 18.2293 43.6827 18.1791 43.7299C18.1288 43.7771 18.0889 43.8341 18.0617 43.8975C18.0345 43.9609 18.0207 44.0291 18.0212 44.0981C18.0155 44.2311 18.0615 44.3611 18.1496 44.4609C18.1929 44.5071 18.2457 44.5433 18.3043 44.5672C18.3629 44.5911 18.426 44.6021 18.4892 44.5994V44.6ZM24.1602 46.6659C23.7584 46.4278 23.299 46.3042 22.8319 46.3086C22.4875 46.2997 22.1457 46.3713 21.8337 46.5176C21.5218 46.6639 21.2482 46.8809 21.0348 47.1514C20.5843 47.6837 20.3354 48.3574 20.3317 49.0546C20.328 49.6829 20.5589 50.29 20.9791 50.7571C21.1966 51.0128 21.4694 51.2155 21.777 51.35C22.0845 51.4844 22.4186 51.547 22.754 51.5329C23.3306 51.5574 23.8956 51.3663 24.339 50.997C24.3701 50.9686 24.395 50.9342 24.4123 50.8958C24.4296 50.8575 24.4389 50.816 24.4396 50.7739C24.4354 50.6966 24.4038 50.6233 24.3503 50.5672C24.3287 50.5365 24.3004 50.511 24.2675 50.4926C24.2346 50.4742 24.1981 50.4635 24.1605 50.4612C24.0091 50.5047 23.8658 50.5725 23.7362 50.662C23.4063 50.8469 23.0312 50.9358 22.6534 50.9188C22.4197 50.926 22.1873 50.8795 21.9744 50.7827C21.7615 50.6859 21.5737 50.5415 21.4254 50.3606C21.105 49.9673 20.9382 49.4711 20.9559 48.9642C20.9599 48.4467 21.1411 47.9463 21.4695 47.5463C21.6184 47.3399 21.8148 47.1724 22.0421 47.0578C22.2694 46.9432 22.5209 46.8849 22.7754 46.8879C23.0713 46.8859 23.3643 46.9468 23.635 47.0664C23.6574 47.0813 23.7002 47.1074 23.7634 47.1447C23.8145 47.1761 23.8687 47.2024 23.9251 47.2229C23.9683 47.2375 24.0135 47.2451 24.059 47.2452C24.0971 47.2446 24.1345 47.2351 24.1684 47.2177C24.2023 47.2003 24.2317 47.1753 24.2544 47.1447C24.3053 47.0898 24.335 47.0186 24.3381 46.9438C24.3359 46.8858 24.3183 46.8295 24.287 46.7806C24.2557 46.7318 24.2119 46.6922 24.1602 46.6659V46.6659ZM30.2105 47.7933L30.2219 46.9227C30.2219 46.7813 30.22 46.6808 30.2164 46.6213C30.2103 46.5565 30.1828 46.4956 30.1381 46.4483C30.1103 46.4191 30.0763 46.3964 30.0387 46.3819C30.001 46.3674 29.9607 46.3615 29.9204 46.3645C29.7116 46.3637 29.6071 46.501 29.6071 46.7763V47.3009C29.4233 46.9943 29.1607 46.7426 28.8467 46.5718C28.5327 46.401 28.1788 46.3174 27.8215 46.3297C27.4844 46.3243 27.1503 46.3929 26.8426 46.5308C26.535 46.6688 26.2614 46.8726 26.0412 47.1278C25.5593 47.6647 25.3016 48.3659 25.3212 49.0871C25.3099 49.7194 25.5439 50.3315 25.9742 50.795C26.1858 51.029 26.4458 51.2141 26.7362 51.3374C27.0265 51.4608 27.3402 51.5195 27.6555 51.5094C28.0481 51.5374 28.4406 51.4525 28.7864 51.2645C29.1322 51.0766 29.417 50.7936 29.6071 50.4489V50.6051C29.6071 50.7912 29.6089 50.9196 29.6126 50.9903C29.6182 51.0747 29.6294 51.1587 29.6462 51.2416C29.6521 51.3147 29.6861 51.3828 29.741 51.4314C29.7948 51.4636 29.8569 51.4792 29.9195 51.4761C29.9978 51.4748 30.0738 51.4495 30.1372 51.4036C30.1691 51.3847 30.1956 51.3579 30.2142 51.3258C30.2328 51.2937 30.2428 51.2573 30.2433 51.2202C30.206 50.5727 30.1873 49.996 30.1873 49.49L30.2105 47.7933ZM25.9461 49.0647C25.9277 48.5001 26.1163 47.9483 26.4765 47.513C26.6331 47.3158 26.8327 47.157 27.06 47.0487C27.2873 46.9403 27.5364 46.8853 27.7882 46.8879C28.0305 46.8862 28.2706 46.9339 28.494 47.0279C28.7173 47.1219 28.9192 47.2603 29.0874 47.4348C29.2767 47.6332 29.4234 47.8682 29.5185 48.1255C29.6135 48.3827 29.6549 48.6567 29.6401 48.9305C29.6511 49.1963 29.6088 49.4615 29.5159 49.7107C29.4229 49.9599 29.2811 50.1881 29.0987 50.3817C28.9205 50.5656 28.7058 50.7103 28.4684 50.8065C28.2309 50.9026 27.9761 50.948 27.72 50.9399C27.4854 50.9434 27.2526 50.898 27.0364 50.8067C26.8202 50.7154 26.6254 50.5801 26.4642 50.4095C26.292 50.2316 26.1573 50.0209 26.0683 49.7898C25.9793 49.5588 25.9377 49.3122 25.9461 49.0647ZM34.977 47.0328L34.9657 50.2142C34.9657 50.3332 34.9638 50.4969 34.9602 50.7054C34.9565 50.9139 34.9547 51.0739 34.9547 51.1854C34.9547 51.3863 35.0588 51.4868 35.2671 51.4868C35.3125 51.4921 35.3585 51.4862 35.4011 51.4697C35.4437 51.4532 35.4817 51.4265 35.5116 51.392C35.5663 51.2834 35.5895 51.1616 35.5786 51.0405L35.5673 48.8089V46.9994C35.5748 45.5482 35.5786 44.5993 35.5786 44.1528C35.5786 43.9445 35.4819 43.8404 35.2885 43.8404C35.2427 43.8336 35.1961 43.8376 35.1522 43.8521C35.1082 43.8666 35.0683 43.8911 35.0357 43.9238C35.003 43.9565 34.9784 43.9964 34.9639 44.0403C34.9494 44.0842 34.9454 44.1309 34.9522 44.1766C34.9522 44.6232 34.956 45.1515 34.9635 45.7617C34.9711 46.3719 34.9755 46.7955 34.977 47.0328ZM37.6671 48.1944V49.8522C37.6671 50.2951 37.6653 50.6132 37.6616 50.8066C37.6579 51 37.6561 51.1302 37.6561 51.1973C37.6561 51.3982 37.7454 51.4987 37.9239 51.4987C38.1546 51.4987 38.2699 51.3946 38.2699 51.1863V49.2099C38.2671 48.9313 38.2895 48.653 38.3369 48.3784C38.3846 48.1264 38.4669 47.8822 38.5814 47.6527C38.7018 47.4095 38.8976 47.2118 39.1396 47.089C39.4311 46.9465 39.753 46.8776 40.0772 46.8882C40.9776 46.8882 41.4353 47.4724 41.4504 48.6407C41.4579 48.9464 41.4542 49.3892 41.4391 49.969C41.424 50.5488 41.4166 50.9469 41.4168 51.1633C41.4168 51.3716 41.5135 51.4758 41.7069 51.4758C41.7914 51.4823 41.8752 51.4564 41.9414 51.4033C41.9887 51.3634 42.0203 51.3081 42.0306 51.2471C42.0396 51.16 42.0434 51.0724 42.0419 50.9848V48.439C42.0746 47.8722 41.9044 47.3123 41.562 46.8594C41.3923 46.665 41.1803 46.5121 40.9422 46.4124C40.7041 46.3127 40.4464 46.2689 40.1888 46.2844C39.7817 46.2798 39.3807 46.3838 39.0271 46.5858C38.6845 46.7787 38.4171 47.0816 38.2681 47.4455V46.8545C38.2704 46.7167 38.2515 46.5792 38.2122 46.4471C38.1824 46.3763 38.1042 46.341 37.9777 46.341C37.9266 46.3341 37.8746 46.3415 37.8274 46.3621C37.7802 46.3827 37.7396 46.4159 37.7099 46.4581C37.658 46.5716 37.635 46.6963 37.643 46.8209L37.6671 48.1944ZM43.2919 46.9664H44.1515C44.1515 47.2418 44.1459 47.6771 44.1347 48.2724C44.1235 48.8677 44.1179 49.303 44.1179 49.5783C44.1179 50.2712 44.2314 50.7661 44.4585 51.0631C44.6003 51.2227 44.7779 51.3464 44.9768 51.4241C45.1757 51.5017 45.3902 51.531 45.6027 51.5097C45.8087 51.5088 46.0128 51.471 46.2055 51.3981C46.2619 51.3801 46.3109 51.3442 46.3452 51.2959C46.3794 51.2476 46.397 51.1895 46.3954 51.1303C46.3955 51.0561 46.372 50.9837 46.3284 50.9237C46.3091 50.894 46.2826 50.8698 46.2514 50.8532C46.2202 50.8366 46.1852 50.8282 46.1499 50.8289C46.0635 50.8366 45.9788 50.8572 45.8986 50.89C45.7894 50.9298 45.6742 50.9505 45.558 50.9512C45.4274 50.9635 45.2961 50.9367 45.1808 50.8741C45.0654 50.8114 44.9714 50.7159 44.9106 50.5996C44.7673 50.2245 44.7064 49.8229 44.7321 49.4221V46.9551H45.971C46.2017 46.9551 46.3171 46.8621 46.3171 46.676C46.3171 46.49 46.213 46.3969 46.0047 46.3969L44.7207 46.4082C44.7207 46.3041 44.7245 46.1144 44.7321 45.839C44.7396 45.5637 44.7434 45.3814 44.7434 45.2921C44.7434 45.1953 44.7415 45.1302 44.7379 45.0968C44.7323 45.0553 44.723 45.0143 44.71 44.9745C44.7053 44.9537 44.6957 44.9343 44.6821 44.9179C44.6685 44.9014 44.6513 44.8884 44.6318 44.8797C44.5815 44.8628 44.5286 44.8553 44.4756 44.8574C44.2598 44.8574 44.1518 45.0323 44.1518 45.382L44.1405 46.4091H43.3369C43.1062 46.4091 42.9908 46.5096 42.9908 46.7106C42.9916 46.8809 43.0925 46.9661 43.2934 46.9661L43.2919 46.9664ZM47.8352 49.0874C48.1409 49.0874 48.6879 49.0892 49.4762 49.0929C50.2645 49.0965 50.7482 49.0909 50.9273 49.076C51.0873 49.0743 51.2465 49.0538 51.4017 49.0149C51.5029 48.9911 51.5921 48.9316 51.653 48.8474C51.7011 48.779 51.7335 48.7008 51.7478 48.6184C51.7611 48.5068 51.7667 48.3945 51.7646 48.2822C51.7597 48.0243 51.7017 47.7703 51.5941 47.536C51.4865 47.3017 51.3318 47.092 51.1395 46.9203C50.9444 46.7223 50.7114 46.5659 50.4543 46.4604C50.1973 46.3549 49.9215 46.3026 49.6437 46.3064C49.3091 46.3066 48.979 46.3836 48.679 46.5318C48.3789 46.6799 48.117 46.895 47.9134 47.1605C47.4433 47.7128 47.1895 48.4169 47.199 49.1421C47.2132 49.7707 47.4714 50.3692 47.9189 50.8109C48.1286 51.0338 48.3821 51.2109 48.6636 51.3309C48.9451 51.451 49.2484 51.5115 49.5544 51.5085C50.1915 51.5351 50.8206 51.3593 51.3516 51.0062C51.5228 50.8872 51.6084 50.7681 51.6084 50.6489C51.604 50.5722 51.5701 50.5001 51.5136 50.448C51.4882 50.4176 51.4567 50.393 51.421 50.3757C51.3854 50.3583 51.3466 50.3487 51.307 50.3474C51.2687 50.3477 51.2308 50.3552 51.1954 50.3698C51.156 50.3858 51.1185 50.4063 51.0838 50.4309C51.0588 50.4492 51.0326 50.4659 51.0056 50.481C50.6032 50.752 50.1288 50.8959 49.6437 50.894C49.3989 50.9039 49.1549 50.8606 48.9284 50.7672C48.702 50.6737 48.4985 50.5323 48.3319 50.3526C48.0091 50.0109 47.8316 49.5571 47.8367 49.0871L47.8352 49.0874ZM49.7106 46.8772C49.8998 46.8762 50.0871 46.9132 50.2617 46.9861C50.4362 47.059 50.5942 47.1662 50.7265 47.3015C50.8702 47.4418 50.9832 47.6106 51.0582 47.797C51.1331 47.9834 51.1684 48.1834 51.1618 48.3843C51.1618 48.4586 51.1171 48.5033 51.0279 48.5181C50.9089 48.533 49.8558 48.5553 47.8688 48.5851C47.9138 48.1305 48.1198 47.7069 48.4496 47.3907C48.6138 47.2233 48.8105 47.0913 49.0276 47.003C49.2448 46.9146 49.4778 46.8717 49.7122 46.8769L49.7106 46.8772ZM55.1939 53.4295C54.8154 53.4296 54.4404 53.3576 54.0888 53.2173C54.0366 53.1949 53.9755 53.1651 53.9054 53.1281C53.8353 53.091 53.7776 53.063 53.7324 53.0443C53.69 53.0262 53.6445 53.0167 53.5985 53.0165C53.5607 53.0169 53.5234 53.025 53.4888 53.0404C53.4543 53.0557 53.4233 53.078 53.3976 53.1057C53.3691 53.1331 53.3464 53.1661 53.331 53.2026C53.3157 53.2391 53.308 53.2783 53.3084 53.3179C53.3084 53.4593 53.4237 53.5821 53.6544 53.6863C54.1244 53.898 54.6348 54.0046 55.1502 53.9987C55.4905 54.0097 55.8294 53.9511 56.1461 53.8262C56.4629 53.7014 56.7508 53.5131 56.992 53.273C57.238 53.016 57.4276 52.7105 57.5487 52.376C57.6698 52.0415 57.7196 51.6854 57.6951 51.3306L57.6838 50.337C57.6838 49.6374 57.6913 48.4095 57.7061 46.6534C57.7081 46.6141 57.7017 46.5748 57.6873 46.5382C57.6728 46.5016 57.6507 46.4686 57.6224 46.4412C57.5664 46.389 57.4922 46.3609 57.4157 46.363C57.2223 46.363 57.1256 46.4671 57.1256 46.6754V47.2773C56.9386 46.9787 56.6784 46.7327 56.3698 46.5627C56.0611 46.3928 55.7141 46.3045 55.3617 46.3061C55.0246 46.3008 54.6902 46.3677 54.3812 46.5025C54.0721 46.6373 53.7955 46.8368 53.5701 47.0875C53.0777 47.6209 52.815 48.3267 52.8388 49.0522C52.8316 49.6886 53.0717 50.3029 53.5086 50.7656C53.7163 51.0008 53.9726 51.188 54.2598 51.3143C54.547 51.4405 54.8582 51.5028 55.1719 51.4969C55.5668 51.5127 55.9583 51.4188 56.3031 51.2257C56.6479 51.0326 56.9325 50.7477 57.1253 50.4028V51.2972C57.1539 51.8633 56.964 52.4188 56.5949 52.849C56.4174 53.0415 56.2002 53.1931 55.9583 53.2933C55.7164 53.3936 55.4556 53.44 55.1939 53.4295V53.4295ZM53.4637 49.0314C53.4435 48.4639 53.6345 47.9091 53.9996 47.4742C54.1596 47.2778 54.3626 47.1209 54.5929 47.0154C54.8232 46.9099 55.0746 46.8588 55.3278 46.8659C55.5709 46.8619 55.8123 46.908 56.0369 47.0011C56.2616 47.0942 56.4647 47.2325 56.6337 47.4072C57 47.827 57.1847 48.375 57.1473 48.9308C57.1598 49.1969 57.1172 49.4626 57.022 49.7114C56.9269 49.9602 56.7814 50.1866 56.5946 50.3765C56.4166 50.5533 56.2047 50.6925 55.9716 50.7855C55.7386 50.8785 55.4891 50.9235 55.2382 50.9179C55.0026 50.9224 54.7687 50.8776 54.5514 50.7863C54.3342 50.6949 54.1385 50.5591 53.9769 50.3875C53.8052 50.2071 53.6712 49.9941 53.5829 49.7612C53.4946 49.5283 53.4537 49.2801 53.4628 49.0311L53.4637 49.0314ZM59.5348 46.698C59.5348 46.8468 59.5404 47.0757 59.5516 47.3846C59.5628 47.6936 59.5684 47.915 59.5684 48.0489C59.5684 48.5549 59.5498 49.5224 59.5125 50.9512C59.496 51.0909 59.5132 51.2325 59.5626 51.3642C59.59 51.4043 59.628 51.4361 59.6724 51.4558C59.7168 51.4755 59.7658 51.4824 59.8139 51.4758C59.8564 51.482 59.8997 51.4783 59.9405 51.4648C59.9813 51.4513 60.0183 51.4285 60.0487 51.3981C60.0791 51.3678 60.1019 51.3307 60.1154 51.29C60.1289 51.2492 60.1326 51.2058 60.1263 51.1633C60.1339 50.6131 60.1376 49.8949 60.1376 49.0088C60.1252 48.4729 60.301 47.9496 60.6344 47.5298C60.7666 47.3423 60.9411 47.1885 61.1438 47.0809C61.3464 46.9733 61.5715 46.9148 61.8009 46.9102H62.0354C62.2437 46.9102 62.3478 46.8135 62.3478 46.6201C62.3478 46.4118 62.2064 46.3077 61.9235 46.3077C61.5667 46.3147 61.2204 46.4294 60.93 46.6369C60.5767 46.8883 60.3019 47.2347 60.1373 47.6359L60.126 46.6882C60.126 46.4641 60.033 46.352 59.8469 46.352C59.6319 46.352 59.5279 46.4673 59.5348 46.698ZM67.773 47.7921L67.7843 46.9215C67.7843 46.7801 67.7825 46.6796 67.7788 46.6201C67.7728 46.5553 67.7452 46.4944 67.7006 46.4471C67.6728 46.4178 67.6388 46.3952 67.6012 46.3807C67.5635 46.3662 67.5231 46.3603 67.4829 46.3633C67.2746 46.3633 67.1705 46.501 67.1705 46.7763V47.3009C66.9866 46.9942 66.724 46.7424 66.4099 46.5716C66.0958 46.4009 65.7416 46.3173 65.3843 46.3297C65.0472 46.3243 64.713 46.3929 64.4054 46.5308C64.0978 46.6688 63.8242 46.8726 63.6039 47.1278C63.1221 47.6647 62.8644 48.3659 62.884 49.0871C62.8727 49.7194 63.1067 50.3315 63.537 50.795C63.7486 51.029 64.0086 51.2141 64.2989 51.3374C64.5893 51.4608 64.903 51.5195 65.2183 51.5094C65.6112 51.5378 66.004 51.4529 66.3502 51.265C66.6964 51.0771 66.9815 50.7939 67.1717 50.4489V50.6051C67.1717 50.7912 67.1736 50.9196 67.1772 50.9903C67.1828 51.0747 67.194 51.1587 67.2108 51.2416C67.2168 51.3147 67.2507 51.3828 67.3056 51.4314C67.3594 51.4636 67.4215 51.4792 67.4841 51.4761C67.5624 51.4748 67.6384 51.4495 67.7018 51.4036C67.7337 51.3847 67.7602 51.3579 67.7788 51.3258C67.7974 51.2937 67.8074 51.2573 67.8079 51.2202C67.7706 50.5727 67.7519 49.996 67.7519 49.49L67.773 47.7921ZM63.5089 49.0647C63.4905 48.5001 63.6791 47.9483 64.0392 47.513C64.1959 47.3158 64.3955 47.157 64.6228 47.0487C64.8501 46.9403 65.0992 46.8853 65.351 46.8879C65.5935 46.8861 65.8339 46.9336 66.0574 47.0277C66.281 47.1217 66.4831 47.2602 66.6514 47.4348C66.8407 47.6332 66.9874 47.8682 67.0825 48.1255C67.1775 48.3827 67.2189 48.6567 67.2041 48.9305C67.2151 49.1963 67.1729 49.4615 67.0799 49.7107C66.9869 49.9599 66.8451 50.1881 66.6627 50.3817C66.4845 50.5656 66.2698 50.7103 66.0324 50.8065C65.7949 50.9026 65.5401 50.948 65.284 50.9399C65.0494 50.9434 64.8166 50.898 64.6004 50.8067C64.3842 50.7154 64.1894 50.5801 64.0282 50.4095C63.8558 50.2317 63.7209 50.021 63.6317 49.79C63.5424 49.5589 63.5007 49.3123 63.5089 49.0647V49.0647ZM69.5711 43.7288C69.5487 48.0675 69.5525 50.4972 69.5824 51.0181C69.59 51.353 69.7021 51.5204 69.9187 51.5204C69.9936 51.5253 70.0676 51.5014 70.1254 51.4534C70.15 51.429 70.1684 51.399 70.1791 51.366C70.1897 51.3329 70.1923 51.2978 70.1865 51.2636C70.1792 51.1446 70.1699 50.9772 70.1587 50.7614C70.1475 50.5455 70.1382 50.3502 70.1309 50.1753C70.1233 50.0005 70.1196 49.8387 70.1196 49.6899C70.1196 49.0424 70.1326 47.9968 70.1587 46.5531C70.1848 45.1094 70.1978 44.2387 70.1978 43.941C70.1999 43.8311 70.1962 43.7212 70.1865 43.6117C70.1773 43.5537 70.1514 43.4996 70.1119 43.4561C70.0849 43.4296 70.0524 43.4093 70.0167 43.3968C69.981 43.3843 69.9429 43.3798 69.9053 43.3837C69.8595 43.3808 69.8137 43.3878 69.7709 43.4043C69.7281 43.4209 69.6894 43.4464 69.6575 43.4793C69.6255 43.5122 69.6011 43.5516 69.5858 43.5948C69.5705 43.638 69.5648 43.6841 69.569 43.7297L69.5711 43.7288ZM74.126 44.4655L75.2702 47.2841C75.6312 48.1734 75.8898 48.8042 76.0461 49.1763C76.2024 49.5484 76.3419 49.8927 76.4646 50.209C76.5869 50.5253 76.6888 50.795 76.7703 51.0181C76.8091 51.1431 76.8695 51.2602 76.9488 51.3642C76.9835 51.3994 77.0254 51.4266 77.0716 51.444C77.1179 51.4614 77.1673 51.4685 77.2166 51.4648C77.3951 51.4648 77.544 51.3456 77.6632 51.1074L78.7127 48.4952C78.8244 48.2272 78.9192 47.9909 78.9973 47.7863C79.0754 47.5817 79.1423 47.4049 79.1981 47.2559L79.3152 46.9435C79.9849 45.3286 80.3235 44.5063 80.331 44.4765C80.3821 44.3584 80.4195 44.2348 80.4426 44.1082C80.442 44.0702 80.4319 44.0331 80.4134 43.9999C80.3949 43.9668 80.3685 43.9388 80.3365 43.9183C80.2673 43.8667 80.183 43.8392 80.0966 43.8401C79.9627 43.8401 79.8585 43.9368 79.7842 44.1302L77.6409 49.667C77.6112 49.7413 77.5516 49.8995 77.4624 50.1414C77.3731 50.3833 77.3024 50.5675 77.2502 50.6941L75.1189 45.2903C75.0743 45.1564 74.998 44.948 74.89 44.6651C74.7819 44.3823 74.7094 44.1887 74.6723 44.0843C74.6601 44.0161 74.6244 43.9543 74.5714 43.9096C74.5184 43.865 74.4515 43.8403 74.3822 43.8398C74.2945 43.8419 74.21 43.8733 74.1422 43.929C74.107 43.9523 74.078 43.9838 74.0576 44.0207C74.0372 44.0577 74.0261 44.099 74.0251 44.1412C74.0384 44.2543 74.0724 44.3641 74.1254 44.4649L74.126 44.4655ZM81.4147 49.0871C81.7204 49.0871 82.2674 49.0889 83.0557 49.0926C83.844 49.0962 84.3277 49.0906 84.5069 49.0757C84.6669 49.074 84.8261 49.0535 84.9813 49.0146C85.0825 48.9908 85.1717 48.9313 85.2326 48.8471C85.2807 48.7787 85.313 48.7005 85.3274 48.6181C85.3406 48.5065 85.3463 48.3942 85.3442 48.2818C85.3393 48.024 85.2812 47.77 85.1737 47.5357C85.0661 47.3013 84.9113 47.0917 84.719 46.92C84.524 46.722 84.2909 46.5656 84.0339 46.4601C83.7768 46.3546 83.5011 46.3022 83.2232 46.3061C82.8887 46.3062 82.5586 46.3833 82.2585 46.5314C81.9585 46.6796 81.6966 46.8947 81.493 47.1602C81.0229 47.7125 80.769 48.4166 80.7786 49.1418C80.7928 49.7704 81.051 50.3689 81.4985 50.8106C81.7081 51.0335 81.9617 51.2106 82.2432 51.3306C82.5247 51.4507 82.828 51.5112 83.134 51.5082C83.7711 51.5348 84.4002 51.3589 84.9312 51.0059C85.1024 50.8869 85.188 50.7678 85.188 50.6485C85.1836 50.5718 85.1496 50.4998 85.0932 50.4477C85.0678 50.4173 85.0362 50.3927 85.0006 50.3753C84.965 50.358 84.9261 50.3484 84.8865 50.3471C84.8483 50.3474 84.8104 50.3549 84.775 50.3694C84.7355 50.3855 84.6981 50.406 84.6634 50.4306C84.6383 50.4489 84.6122 50.4656 84.5851 50.4807C84.1828 50.7517 83.7083 50.8956 83.2232 50.8937C82.9785 50.9036 82.7345 50.8603 82.508 50.7669C82.2816 50.6734 82.078 50.532 81.9115 50.3523C81.5882 50.0109 81.4101 49.5572 81.4147 49.0871ZM83.2902 46.8769C83.4793 46.8759 83.6667 46.9129 83.8412 46.9858C84.0157 47.0587 84.1738 47.1659 84.306 47.3012C84.4498 47.4415 84.5628 47.6103 84.6377 47.7967C84.7127 47.9831 84.7479 48.1831 84.7413 48.3839C84.7413 48.4583 84.6967 48.503 84.6074 48.5178C84.4884 48.5327 83.4354 48.555 81.4484 48.5848C81.4934 48.1302 81.6994 47.7066 82.0292 47.3904C82.1932 47.2233 82.3897 47.0914 82.6065 47.0031C82.8234 46.9148 83.0561 46.8718 83.2902 46.8769V46.8769ZM86.3823 46.9661H87.2419C87.2419 47.2415 87.2363 47.6768 87.2251 48.2721C87.2139 48.8674 87.2083 49.3027 87.2083 49.578C87.2083 50.2709 87.3218 50.7658 87.5489 51.0628C87.6907 51.2224 87.8683 51.3461 88.0672 51.4238C88.2661 51.5014 88.4806 51.5307 88.6931 51.5094C88.8991 51.5085 89.1032 51.4707 89.2959 51.3978C89.3523 51.3798 89.4013 51.3439 89.4356 51.2956C89.4698 51.2473 89.4874 51.1892 89.4857 51.13C89.4859 51.0558 89.4624 50.9834 89.4188 50.9234C89.3995 50.8937 89.373 50.8694 89.3418 50.8529C89.3106 50.8363 89.2756 50.8279 89.2403 50.8286C89.1539 50.8363 89.0692 50.8569 88.989 50.8897C88.8798 50.9295 88.7646 50.9502 88.6484 50.9509C88.5178 50.9632 88.3865 50.9364 88.2712 50.8737C88.1558 50.8111 88.0618 50.7156 88.001 50.5993C87.8577 50.2242 87.7968 49.8226 87.8225 49.4218V46.9548H89.0614C89.2921 46.9548 89.4075 46.8618 89.4075 46.6757C89.4075 46.4896 89.3033 46.3966 89.0951 46.3966L87.8111 46.4079C87.8111 46.3038 87.8148 46.114 87.8221 45.8387C87.8295 45.5634 87.8333 45.3811 87.8335 45.2918C87.8335 45.195 87.8316 45.1299 87.828 45.0965C87.8224 45.055 87.8131 45.014 87.8001 44.9742C87.7954 44.9534 87.7858 44.934 87.7722 44.9176C87.7586 44.9011 87.7414 44.8881 87.7219 44.8794C87.6716 44.8625 87.6187 44.855 87.5657 44.8571C87.3498 44.8571 87.2419 45.032 87.2419 45.3817L87.2306 46.4088H86.4269C86.1962 46.4088 86.0809 46.5093 86.0809 46.7103C86.0809 46.8808 86.1814 46.9661 86.3823 46.9661ZM90.9256 49.0871C91.2313 49.0871 91.7783 49.0889 92.5666 49.0926C93.3549 49.0962 93.8386 49.0906 94.0177 49.0757C94.1777 49.074 94.3369 49.0535 94.4921 49.0146C94.5933 48.9908 94.6825 48.9313 94.7434 48.8471C94.7915 48.7787 94.8239 48.7005 94.8382 48.6181C94.8515 48.5065 94.8571 48.3942 94.855 48.2818C94.8501 48.024 94.7921 47.77 94.6845 47.5357C94.5769 47.3013 94.4222 47.0917 94.2298 46.92C94.0348 46.722 93.8018 46.5656 93.5447 46.4601C93.2877 46.3546 93.0119 46.3022 92.7341 46.3061C92.3995 46.3062 92.0694 46.3833 91.7694 46.5314C91.4693 46.6796 91.2074 46.8947 91.0038 47.1602C90.5337 47.7125 90.2799 48.4166 90.2894 49.1418C90.3036 49.7704 90.5618 50.3689 91.0093 50.8106C91.219 51.0335 91.4725 51.2106 91.754 51.3306C92.0355 51.4507 92.3388 51.5112 92.6448 51.5082C93.2819 51.5348 93.911 51.359 94.442 51.0059C94.6132 50.8869 94.6988 50.7678 94.6988 50.6485C94.6944 50.5718 94.6605 50.4998 94.604 50.4477C94.5786 50.4173 94.5471 50.3927 94.5114 50.3753C94.4758 50.358 94.437 50.3484 94.3974 50.3471C94.3591 50.3474 94.3212 50.3549 94.2858 50.3694C94.2464 50.3855 94.2089 50.406 94.1742 50.4306C94.1492 50.4489 94.123 50.4656 94.096 50.4807C93.6936 50.7517 93.2192 50.8956 92.7341 50.8937C92.4893 50.9036 92.2453 50.8603 92.0188 50.7669C91.7924 50.6734 91.5889 50.532 91.4223 50.3523C91.0992 50.0108 90.9212 49.5572 90.9259 49.0871H90.9256ZM92.801 46.8769C92.9902 46.8759 93.1775 46.9129 93.3521 46.9858C93.5266 47.0587 93.6846 47.1659 93.8169 47.3012C93.9606 47.4415 94.0736 47.6103 94.1485 47.7967C94.2235 47.9831 94.2588 48.1831 94.2522 48.3839C94.2522 48.4583 94.2075 48.503 94.1183 48.5178C93.9993 48.5327 92.9462 48.555 90.9592 48.5848C91.0042 48.1302 91.2102 47.7066 91.54 47.3904C91.704 47.2233 91.9005 47.0914 92.1174 47.0031C92.3342 46.9148 92.5669 46.8718 92.801 46.8769V46.8769ZM96.3731 46.6983C96.3731 46.8471 96.3787 47.076 96.3899 47.3849C96.4011 47.6939 96.4067 47.9153 96.4067 48.0492C96.4067 48.5552 96.3881 49.5227 96.3508 50.9515C96.3343 51.0912 96.3515 51.2328 96.4009 51.3645C96.4282 51.4046 96.4663 51.4364 96.5107 51.4561C96.5551 51.4758 96.6041 51.4827 96.6522 51.4761C96.6947 51.4824 96.738 51.4786 96.7788 51.4651C96.8196 51.4516 96.8566 51.4288 96.887 51.3984C96.9174 51.3681 96.9402 51.331 96.9537 51.2903C96.9672 51.2495 96.9709 51.2061 96.9646 51.1636C96.972 50.6134 96.9756 49.8952 96.9756 49.0091C96.963 48.4732 97.1385 47.9498 97.4718 47.5298C97.604 47.3423 97.7785 47.1885 97.9811 47.0809C98.1838 46.9733 98.4089 46.9148 98.6383 46.9102H98.8728C99.0811 46.9102 99.1852 46.8135 99.1852 46.6201C99.1852 46.4118 99.0438 46.3077 98.7609 46.3077C98.4041 46.3147 98.0578 46.4294 97.7674 46.6369C97.4141 46.8883 97.1392 47.2347 96.9747 47.6359L96.9637 46.6882C96.9637 46.4641 96.8707 46.352 96.6846 46.352C96.4696 46.352 96.3658 46.4673 96.3731 46.698V46.6983ZM100.247 46.6983V51.1187C100.239 51.2187 100.259 51.3187 100.303 51.4088C100.329 51.4416 100.363 51.4671 100.402 51.4828C100.441 51.4984 100.484 51.5037 100.526 51.4981C100.586 51.5 100.646 51.4924 100.704 51.4758C100.747 51.4621 100.784 51.432 100.805 51.392C100.826 51.3544 100.839 51.3127 100.844 51.2697C100.848 51.229 100.849 51.1678 100.849 51.0863V49.567C100.849 49.2917 100.851 48.8582 100.855 48.2666C100.859 47.6749 100.86 47.2415 100.86 46.9661C100.873 46.7967 100.854 46.6264 100.804 46.4639C100.767 46.3895 100.678 46.3523 100.537 46.3523C100.351 46.3521 100.254 46.4673 100.247 46.698L100.247 46.6983ZM100.514 44.5997C100.879 44.5997 101.061 44.4323 101.061 44.0975C101.069 43.9636 101.025 43.8317 100.939 43.7291C100.892 43.6826 100.837 43.6465 100.775 43.6235C100.713 43.6004 100.648 43.5907 100.582 43.5952C100.513 43.5903 100.444 43.5996 100.379 43.6227C100.314 43.6458 100.254 43.6821 100.204 43.7293C100.153 43.7766 100.113 43.8337 100.086 43.8972C100.059 43.9606 100.045 44.029 100.046 44.0981C100.04 44.2311 100.086 44.3611 100.174 44.4609C100.218 44.5072 100.27 44.5435 100.329 44.5674C100.388 44.5913 100.451 44.6022 100.515 44.5994L100.514 44.5997ZM102.758 48.1941V49.8519C102.758 50.2948 102.756 50.6129 102.753 50.8063C102.749 50.9997 102.747 51.1299 102.747 51.197C102.747 51.3979 102.836 51.4984 103.015 51.4984C103.246 51.4984 103.361 51.3942 103.361 51.186V49.2099C103.358 48.9313 103.381 48.653 103.428 48.3784C103.476 48.1264 103.558 47.8822 103.673 47.6527C103.793 47.4095 103.989 47.2118 104.231 47.089C104.522 46.9465 104.844 46.8776 105.168 46.8882C106.069 46.8882 106.526 47.4724 106.541 48.6407C106.549 48.9464 106.545 49.3892 106.53 49.969C106.516 50.5488 106.508 50.9469 106.508 51.1633C106.508 51.3716 106.605 51.4758 106.798 51.4758C106.883 51.4823 106.967 51.4564 107.033 51.4033C107.08 51.3634 107.112 51.3081 107.122 51.2471C107.131 51.16 107.135 51.0724 107.133 50.9848V48.439C107.166 47.8722 106.996 47.3123 106.653 46.8594C106.483 46.665 106.271 46.5121 106.033 46.4124C105.795 46.3127 105.537 46.2689 105.28 46.2844C104.873 46.2798 104.472 46.3838 104.118 46.5858C103.776 46.7787 103.508 47.0816 103.359 47.4455V46.8545C103.361 46.7167 103.343 46.5792 103.303 46.4471C103.273 46.3763 103.195 46.341 103.069 46.341C103.018 46.3341 102.966 46.3415 102.919 46.3621C102.871 46.3827 102.831 46.4159 102.801 46.4581C102.749 46.5716 102.726 46.6963 102.734 46.8209L102.758 48.1941ZM113.385 47.7921L113.397 46.9215C113.397 46.7801 113.395 46.6796 113.391 46.6201C113.385 46.5553 113.358 46.4944 113.313 46.4471C113.285 46.4178 113.251 46.3952 113.214 46.3807C113.176 46.3662 113.136 46.3603 113.095 46.3633C112.887 46.3633 112.783 46.501 112.783 46.7763V47.3009C112.599 46.9942 112.336 46.7424 112.022 46.5716C111.708 46.4009 111.354 46.3173 110.997 46.3297C110.66 46.3243 110.325 46.3929 110.018 46.5308C109.71 46.6688 109.437 46.8726 109.216 47.1278C108.734 47.6647 108.477 48.3659 108.496 49.0871C108.485 49.7194 108.719 50.3315 109.149 50.795C109.361 51.029 109.621 51.2141 109.911 51.3374C110.202 51.4608 110.515 51.5195 110.831 51.5094C111.224 51.5378 111.616 51.453 111.963 51.2651C112.309 51.0771 112.594 50.7939 112.784 50.4489V50.6051C112.784 50.7912 112.786 50.9196 112.79 50.9903C112.795 51.0747 112.806 51.1587 112.823 51.2416C112.829 51.3147 112.863 51.3828 112.918 51.4314C112.972 51.4636 113.034 51.4792 113.097 51.4761C113.175 51.4748 113.251 51.4495 113.314 51.4036C113.346 51.3847 113.373 51.3579 113.391 51.3258C113.41 51.2937 113.42 51.2573 113.42 51.2202C113.383 50.5727 113.364 49.996 113.364 49.49L113.385 47.7921ZM109.121 49.0647C109.103 48.5002 109.291 47.9483 109.651 47.513C109.808 47.3158 110.008 47.157 110.235 47.0487C110.462 46.9403 110.711 46.8853 110.963 46.8879C111.206 46.8861 111.446 46.9336 111.67 47.0277C111.893 47.1217 112.095 47.2602 112.264 47.4348C112.453 47.6332 112.6 47.8682 112.695 48.1255C112.79 48.3827 112.831 48.6567 112.816 48.9305C112.827 49.1963 112.785 49.4615 112.692 49.7107C112.599 49.9599 112.457 50.1881 112.275 50.3817C112.097 50.5657 111.882 50.7104 111.644 50.8065C111.407 50.9026 111.152 50.948 110.896 50.9399C110.661 50.9434 110.429 50.898 110.212 50.8067C109.996 50.7154 109.801 50.5801 109.64 50.4095C109.468 50.2317 109.333 50.021 109.244 49.7899C109.155 49.5589 109.113 49.3123 109.121 49.0647V49.0647ZM115.205 46.6983C115.205 46.8471 115.21 47.076 115.221 47.3849C115.233 47.6939 115.238 47.9153 115.238 48.0492C115.238 48.5552 115.22 49.5227 115.182 50.9515C115.166 51.0912 115.183 51.2328 115.232 51.3645C115.26 51.4046 115.298 51.4364 115.342 51.4561C115.387 51.4758 115.436 51.4827 115.484 51.4761C115.526 51.4824 115.57 51.4786 115.61 51.4651C115.651 51.4516 115.688 51.4288 115.719 51.3984C115.749 51.3681 115.772 51.331 115.785 51.2903C115.799 51.2495 115.802 51.2061 115.796 51.1636C115.803 50.6134 115.807 49.8952 115.807 49.0091C115.795 48.4732 115.971 47.9499 116.304 47.5301C116.436 47.3426 116.611 47.1888 116.814 47.0812C117.016 46.9736 117.241 46.9151 117.471 46.9105H117.705C117.913 46.9105 118.018 46.8138 118.018 46.6204C118.018 46.4121 117.876 46.308 117.593 46.308C117.237 46.315 116.89 46.4298 116.6 46.6372C116.247 46.8886 115.972 47.235 115.807 47.6362L115.796 46.6886C115.796 46.4644 115.703 46.3523 115.517 46.3523C115.302 46.3521 115.198 46.4673 115.205 46.698L115.205 46.6983ZM119.078 46.6983V51.1187C119.071 51.2187 119.09 51.3187 119.134 51.4088C119.16 51.4416 119.195 51.4671 119.234 51.4828C119.273 51.4984 119.315 51.5037 119.357 51.4981C119.418 51.5 119.478 51.4924 119.536 51.4758C119.579 51.4621 119.615 51.432 119.636 51.392C119.658 51.3544 119.671 51.3127 119.675 51.2697C119.679 51.229 119.681 51.1678 119.681 51.0863V49.567C119.681 49.2917 119.683 48.8582 119.686 48.2666C119.69 47.6749 119.692 47.2415 119.692 46.9661C119.704 46.7967 119.685 46.6264 119.636 46.4639C119.599 46.3895 119.509 46.3523 119.368 46.3523C119.183 46.3521 119.086 46.4673 119.079 46.698L119.078 46.6983ZM119.346 44.5997C119.71 44.5997 119.893 44.4323 119.893 44.0975C119.901 43.9636 119.857 43.8317 119.771 43.7291C119.724 43.6825 119.668 43.6465 119.606 43.6234C119.545 43.6003 119.479 43.5907 119.413 43.5952C119.344 43.5904 119.275 43.5999 119.21 43.623C119.145 43.6462 119.086 43.6825 119.036 43.7297C118.985 43.7769 118.945 43.834 118.918 43.8974C118.891 43.9608 118.877 44.0291 118.878 44.0981C118.872 44.2311 118.918 44.3611 119.006 44.4609C119.05 44.5071 119.103 44.5434 119.161 44.5673C119.22 44.5912 119.283 44.6022 119.347 44.5994L119.346 44.5997ZM126.111 47.7924L126.122 46.9218C126.122 46.7804 126.12 46.6799 126.116 46.6204C126.11 46.5556 126.083 46.4947 126.038 46.4474C126.01 46.4182 125.976 46.3955 125.939 46.381C125.901 46.3666 125.861 46.3606 125.821 46.3636C125.612 46.3636 125.508 46.5013 125.508 46.7766V47.3012C125.324 46.9945 125.062 46.7427 124.747 46.572C124.433 46.4012 124.079 46.3176 123.722 46.33C123.385 46.3246 123.051 46.3932 122.743 46.5312C122.435 46.6691 122.162 46.8729 121.942 47.1281C121.46 47.665 121.202 48.3662 121.222 49.0874C121.21 49.7197 121.444 50.3318 121.875 50.7953C122.086 51.0293 122.346 51.2144 122.637 51.3377C122.927 51.4611 123.241 51.5198 123.556 51.5097C123.949 51.5381 124.342 51.4532 124.688 51.2653C125.034 51.0774 125.319 50.7942 125.509 50.4492V50.6054C125.509 50.7915 125.511 50.9199 125.515 50.9906C125.52 51.075 125.532 51.159 125.548 51.2419C125.554 51.3151 125.588 51.3831 125.643 51.4317C125.697 51.4639 125.759 51.4795 125.822 51.4764C125.9 51.4751 125.976 51.4499 126.039 51.4039C126.071 51.385 126.098 51.3582 126.116 51.3261C126.135 51.294 126.145 51.2576 126.146 51.2205C126.108 50.573 126.09 49.9963 126.09 49.4903L126.111 47.7924ZM121.846 49.065C121.828 48.5004 122.017 47.9486 122.377 47.5133C122.533 47.3161 122.733 47.1573 122.96 47.049C123.188 46.9406 123.437 46.8856 123.689 46.8882C123.931 46.8864 124.171 46.934 124.395 47.028C124.619 47.122 124.821 47.2605 124.989 47.4351C125.178 47.6335 125.325 47.8685 125.42 48.1258C125.515 48.383 125.557 48.657 125.542 48.9308C125.553 49.1966 125.51 49.4619 125.418 49.711C125.325 49.9602 125.183 50.1884 125 50.382C124.822 50.566 124.607 50.7107 124.37 50.8068C124.133 50.9029 123.878 50.9484 123.622 50.9402C123.387 50.9437 123.154 50.8983 122.938 50.807C122.722 50.7157 122.527 50.5804 122.366 50.4098C122.193 50.2319 122.059 50.0212 121.97 49.7901C121.88 49.559 121.839 49.3123 121.847 49.0647L121.846 49.065Z" fill="#3D434C"/>
</svg>
