<?xml version="1.0" standalone="no"?>
<!DOCTYPE svg PUBLIC "-//W3C//DTD SVG 20010904//EN"
 "http://www.w3.org/TR/2001/REC-SVG-20010904/DTD/svg10.dtd">
<svg version="1.0" xmlns="http://www.w3.org/2000/svg"
 width="200.000000pt" height="200.000000pt" viewBox="0 0 200.000000 200.000000"
 preserveAspectRatio="xMidYMid meet">
<metadata>
Created by potrace 1.14, written by Peter Selinger 2001-2017
</metadata>
<g transform="translate(0.000000,200.000000) scale(0.100000,-0.100000)"
fill="#000000" stroke="none">
<path d="M908 1734 c-2 -1 -19 -6 -38 -9 -42 -8 -50 -10 -72 -18 -42 -16 -51
-17 -64 -6 -8 6 -14 8 -14 4 0 -4 -7 -2 -15 5 -8 7 -15 8 -15 3 0 -5 -10 -9
-22 -10 -49 -2 -118 -23 -118 -36 0 -6 -3 -8 -6 -4 -11 11 -97 -54 -176 -135
-43 -43 -78 -83 -78 -87 0 -5 -4 -11 -8 -13 -12 -4 -92 -125 -92 -137 0 -6 -4
-11 -9 -11 -8 0 -24 -37 -22 -52 1 -5 -4 -8 -9 -8 -5 0 -9 -3 -8 -7 1 -9 -15
-52 -37 -95 -7 -16 -10 -28 -5 -28 5 0 3 -11 -4 -25 -7 -13 -12 -38 -11 -55 1
-16 -2 -30 -6 -30 -5 0 -4 -12 1 -26 6 -14 8 -30 4 -35 -3 -5 0 -9 5 -9 6 0
10 -3 9 -7 -6 -17 45 -83 68 -89 13 -3 24 -10 24 -16 0 -5 5 -6 12 -2 7 4 22
8 35 9 20 1 22 -4 21 -40 -2 -65 10 -128 36 -181 23 -48 86 -135 86 -119 0 5
10 -3 23 -17 28 -31 92 -70 100 -61 4 3 7 2 7 -4 0 -13 61 -30 135 -38 160
-16 205 -29 205 -61 0 -12 5 -35 10 -49 10 -27 40 -63 40 -48 0 4 4 4 8 -2 11
-16 72 -35 72 -23 0 7 5 7 13 -1 8 -6 17 -7 21 -3 8 7 13 8 41 11 31 2 76 55
77 89 1 31 17 53 42 59 6 1 30 7 53 12 22 6 72 13 110 16 97 7 175 37 229 86
11 11 24 16 27 12 4 -3 7 -2 7 4 0 6 15 26 33 45 27 27 70 97 72 118 0 3 3 10
7 15 10 16 21 96 19 141 -2 39 -1 40 30 38 17 -1 43 2 58 7 26 9 71 64 71 87
0 7 4 12 8 12 5 0 8 28 7 63 -1 34 -3 62 -4 62 -1 0 -4 11 -6 25 -9 50 -11 60
-18 66 -4 4 -7 16 -7 26 0 10 -4 18 -10 18 -5 0 -9 3 -7 8 4 14 -75 159 -123
223 -94 125 -222 242 -300 276 -63 27 -71 28 -205 22 -16 -1 -31 4 -33 10 -2
6 -8 8 -13 5 -6 -3 -18 -2 -27 2 -9 4 -26 9 -37 11 -27 5 -203 12 -207 7z"/>
</g>
</svg>
